<?xml version="1.0" encoding="UTF-8"?>
<svg id="Capa_2" data-name="Capa 2" xmlns="http://www.w3.org/2000/svg" xmlns:xlink="http://www.w3.org/1999/xlink" viewBox="0 0 595.28 841.89">
  <defs>
    <style>
      .cls-1 {
        fill: #fff;
      }

      .cls-2 {
        fill: #e2e8e8;
      }

      .cls-3, .cls-4 {
        fill: none;
      }

      .cls-4 {
        clip-path: url(#clippath);
      }
    </style>
    <clipPath id="clippath">
      <rect class="cls-3" width="595.28" height="841.89"/>
    </clipPath>
  </defs>
  <g id="Layer_2" data-name="Layer 2">
    <g class="cls-4">
      <g>
        <path class="cls-1" d="m110.56,595.74c-1.69,1.47-3.18,3.32-4.46,4.98-2.53,3.3-5.53,6.13-7.74,9.41l-3.46,4.9c-1.18,1.66-2.42,3.34-3.61,5.27,0,0,8.65-3.01,11.81-6.08,3.23-3.06,5.04-7.08,7.15-10.71,1.94-3.53,4.29-6.48,7.5-8.83,3.12-2.44,7.14-3.86,10.79-6.07,0,0-8.38,1.42-12.4,3.39-1.98.99-3.87,2.26-5.58,3.75Z"/>
        <path class="cls-1" d="m118.15,725.65c2.62-.03,5.23,0,7.85.13,0,0-5.07-1.68-7.65-2.21l-7.79-1.29c-2.59-.39-5.15-1.14-7.76-1.09-2.62.01-5.18.23-7.92.79,0,0,4.94,2.81,7.52,3.36,2.6.56,5.27.23,7.89.26l7.86.04Z"/>
        <path class="cls-1" d="m140.53,621.05c-2.28,1.41-4.07,3.59-5.21,6.1-1.09,2.53-1.46,5.43-1.06,8.26.44,2.83,1.65,5.58,3.47,7.82,1.81,2.23,4.23,3.98,6.85,4.93,5.25,2,11.21.55,14.35-3.22-4.27,2.36-9.28,2.35-13.27.31-3.95-2.04-6.88-5.97-7.41-10.22-.68-4.23.9-8.63,4.2-11.35,3.26-2.75,8.13-3.74,12.97-2.26-4.17-3.07-10.39-3.33-14.89-.36Z"/>
        <path class="cls-1" d="m237.58,606.97c2.17-1.34,6.67-3.97,6.67-3.97-2.55.59-5.03,1.43-7.45,2.49-1.2.53-2.5.96-3.53,1.85-1.02.86-2.01,1.91-2.46,3.28l.16.14c1.27-.56,2.36-1.1,3.47-1.69,1.11-.57,2.06-1.43,3.15-2.1Z"/>
        <path class="cls-1" d="m144.34,589.96c-2.44.98-4.44,3.07-5.61,5.57-1.15,2.5-1.59,5.46-1,8.23.52,2.79,1.96,5.37,3.99,7.27,2.02,1.89,4.66,3.05,7.28,3.09-2.01-1.68-3.63-3.33-4.79-5.22-1.19-1.86-1.99-3.85-2.37-5.93-.43-2.07-.37-4.2,0-6.38.39-2.19,1.24-4.34,2.51-6.63Z"/>
        <path class="cls-1" d="m136.12,768.29c1.04-.09,2.13-.2,3.27-.31,10.85-1.07,25.71-2.54,36.04,4.72,1.79,1.26,3.24,2.56,4.45,3.87.2-3.45-1.35-6.99-2.82-9.51-.59-.51-1.12-1.04-1.56-1.57-1.72-2.08-3.91-5.83-5.7-10.87-2.04-1.99-5.01-4.17-9.06-5.44-8.79-2.76-11-7.97-4.37-6.9,5.8.93,9.03-2.43,9.43-5.5-.67-.65-1.3-1.37-2.01-2l-3.71-3.25c-1.23-1.12-3.61-3.59-3.61-3.59,1.62.5,3.17,1.17,4.73,1.83,1.54.7,3.05,1.46,4.52,2.29.28.16.58.31.88.46.1-2.42.34-4.93.76-7.53.32-2.01.38-3.97.35-5.93-3.67-1.39-8.78-2.95-10.17-3.25-1.77-.41-5.42-1.37-5.42-1.37,1.83-.39,3.7-.56,5.58-.71,1.88-.11,3.78-.08,5.69.11,1.32.13,2.73.18,4.06.54-.13-1.35-.29-2.72-.45-4.16-.09-.76-.18-1.57-.27-2.37-6.57-1.65-10.5,3.76-10.5,3.76-10.52-.52-14.98,4.26-14.98,4.26,3.4.29,12.04,1.93,13.28,5.84-9.64,1.82-12.73,10.23-12.73,10.23-10.64-1.21-11.56,3.45-11.56,3.45,8.34.94,10.39,5.54,10.39,5.54-24.15-1.59-26.08,6.4-26.08,6.4,8.35-2.19,19.52-.43,19.52-.43-1.5,6.29,1,15.85,1,15.85-15.97,1.13-23.76,5.53-27.02,8.09,6.7-.98,13.96-1.49,20.24-1.93,2.83-.2,5.48-.38,7.84-.59Z"/>
        <path class="cls-1" d="m156.13,633.4c.16-1.31-.38-2.71-1.35-3.67-.98-.94-2.4-1.44-3.71-1.24-1.3.16-2.48.98-2.92,2.08,2.13-.95,3.99-.48,5.17.66,1.17,1.14,1.7,3,.81,5.15,1.08-.48,1.87-1.67,1.99-2.98Z"/>
        <path class="cls-1" d="m84.35,840.43c.42,1.47,1.3,2.76,2.27,3.9.97,1.15,2.1,2.14,3.27,3.05,1.2.88,2.45,1.68,3.79,2.33,1.33.65,2.74,1.2,4.24,1.45-2.24-2.02-4.51-3.71-6.78-5.44l-3.41-2.57c-1.13-.87-2.24-1.74-3.39-2.73Z"/>
        <path class="cls-1" d="m104.02,816.31c2.95.2,5.9.65,8.93.98,3.03.35,6.16.64,9.39.46,1.61-.09,3.25-.31,4.84-.85,1.58-.47,3.08-1.44,4.12-2.62-3.07.96-5.9.6-8.85.23-2.94-.42-5.93-1.02-9.03-1.37-3.09-.37-6.31-.51-9.53-.09-3.19.4-6.5,1.48-8.9,3.66,3.15-.59,6.07-.6,9.02-.4Z"/>
        <path class="cls-1" d="m83.6,803.11l1.39,1.03c.76-.66,1.66-1.36,2.7-2.04.44-2.99,1.87-5.03,2.96-6.14-3.13.88-5.22,2.2-6.47,3.25-.32,1.43-.56,2.78-.59,3.9Z"/>
        <path class="cls-1" d="m86.06,791.59c-.13.61-.27,1.22-.42,1.82.31-.15.63-.29.96-.43,3.87-2.83,10.4-5.8,13.55-7.22,0,0-7.34.02-10.33,2.96,0,0,.01-1.97,1.42-4.73-3.18,3.25-4.85,6.81-5.19,7.6Z"/>
        <path class="cls-1" d="m96.11,807.89c2.48.34,4.73.44,7.04.59,2.32.12,4.58.21,7.07.19-.98-.81-2.16-1.3-3.33-1.65-1.18-.36-2.4-.54-3.62-.63-2.43-.11-4.98.2-7.16,1.49Z"/>
        <path class="cls-1" d="m140.28,706.67s-7.85-.83-11.78-.88c-3.93,0-7.87.12-11.86.6-2,.23-4.03.44-6.1.87-1.03.21-2.07.54-3.09.96-.49.23-1.07.48-1.47.71l-1.18.67c-1.56.92-3.13,1.77-4.81,2.69-1.68.9-3.54,1.88-5.13,3.3,0,0,4.21.82,6.27.65,2.05-.14,4.16-.61,6.12-1.33l1.45-.59,1.18-.51c.77-.32,1.55-.69,2.39-1.02,1.64-.72,3.41-1.35,5.24-1.8,3.66-.92,7.46-1.61,11.27-2.29,3.82-.73,7.68-1.28,11.53-2.03Z"/>
        <path class="cls-1" d="m136.42,596.67c-1.29,1.01-2.25,2.71-2.74,4.58-.48,1.87-.52,3.94-.02,5.76.47,1.83,2.48,4.64,6.89,5.5-1.22-.87-2.22-1.76-2.99-2.89-.78-1.11-1.35-2.35-1.69-3.72-.37-1.35-.48-2.82-.41-4.35.08-1.55.41-3.13.96-4.87Z"/>
        <path class="cls-1" d="m259.62,421.74c6.28-.78,13.04-5.81,15.38-11.44.74-1.78,1.01-3.52.83-5.19l-.9,3.64c-.41,1.68-2.11,2.7-3.79,2.29l-1.3-.32c-2.66,4.39-7.46,7-14.59,7.89-6.82.85-16.21,4.29-22.27,15.86-5.11,9.75-12.84,23.84-21.03,33.56-8.54,10.14-18.81,23.88-20.5,28.37-.28.74-.34,1.67-.41,2.85-.04.64-.09,1.37-.18,2.16.63,1.69,1.75,3.52,3.7,4.01.25-1.37.33-2.53.4-3.56.09-1.4.17-2.73.67-4.05,2.18-5.79,14.17-21.22,21.21-29.59,7.92-9.4,15.5-23.23,20.52-32.81,6.67-12.74,14.66-13.19,19.95-13.49.81-.05,1.58-.09,2.3-.18Z"/>
        <path class="cls-1" d="m251.57,434.65c-1.56.83-2.73,2.68-2.73,2.68-1.42,2.42-3.77,3.99-3.77,3.99,0,0,.63-1.39.7-5.08.04-2.06-1.69-1.95-3.23-1.45-.49.79-.99,1.62-1.48,2.56-2.84,5.42-6.5,12.17-10.59,18.78,4.26,4.06,4.72,11.11,4.72,11.11-3.94,8.25-13.09,21.57-13.32,21.91,2.46-2.49,4.97-5.2,7.13-7.77,19.7-23.48,23.49-39.63,24.22-45.17-.55-.52-1.1-1.04-1.66-1.55Z"/>
        <path class="cls-1" d="m212.23,573.5c-.22-1.39-.34-3.03-.22-5.02-4-.91-7.21-.89-9.72-.44,3.1,2.28,3.17,5.89,3.17,5.89-5.41-1.51-8.63,2.88-8.63,2.88-3.82,2.65-7.13,11.59-8.58,16,.3,1.51.64,3.02.99,4.53l2.61,10.46c.43,3.57.78,7.17,1.09,10.82.19,2.51.3,4.98.39,7.43.7,1.27,1.27.17,1.79-1.63.04-.43.08-.86.13-1.26.41-3.18,2.36-10.08,4.44-16.62.59-3.26,1.09-8.02.1-10.83-1.11-3.15,3.55-4,7.84-10.14,1.86-4.73,3.86-10.09,4.6-12.06Zm-14.93,14.5c-.41,1.41-1.28,2.69-1.54,4.3-.25,1.58-.22,3.27.01,4.98.19,1.73.68,3.44,1.3,5.14l-.36.22c-1.22-1.41-2.16-3.04-2.95-4.78-.75-1.76-1.25-3.68-1.34-5.7-.1-1.98-.12-4.31,1.18-6.08,1.24-1.74,3.04-3.03,5.16-3.32l.26.32c-.62,2.05-1.26,3.49-1.73,4.94Z"/>
        <path class="cls-1" d="m132.16,624.83c-1.89,1.47-3.3,3.97-4.01,6.7-.7,2.74-.77,5.77-.03,8.43,2.09,4.29,7.98,8.55,10.09,8.06-1.78-1.27-3.25-2.58-4.37-4.24-1.14-1.62-1.97-3.45-2.48-5.44-.55-1.98-.7-4.13-.6-6.38.11-2.27.6-4.59,1.4-7.13Z"/>
        <path class="cls-1" d="m240.56,596.08c-1.85.44-3.85.65-5.5,1.7-1.65,1.03-3.19,2.34-4.23,4.27l.21.36c2.19.06,3.94-.34,5.71-.81,1.76-.43,3.22-1.61,4.9-2.36,3.33-1.49,10.19-4.7,10.19-4.7-1.9.03-3.78.25-5.67.47-1.88.26-3.75.62-5.61,1.07Z"/>
        <path class="cls-1" d="m243.14,536.17s-4.66.66-6.74.93c-1.06.11-6.49.4-7.79,1.35,0,0,2.65,3.43,8.69,1.86,1.12-.5,2.17-1.11,3.14-1.8.96-.73,1.88-1.45,2.69-2.34Z"/>
        <path class="cls-1" d="m191.76,682.15c.89-.57,1.91-1.61,2.91-3.59,1.48-2.95,2.7-6.77,3.99-10.81.6-1.89,1.23-3.84,1.91-5.82,2.36-6.85,4.01-12.16,5.43-19.05,1.27-6.15.61-14.11.46-15.65-.44-1.5-1.84-6.27-2.43-13.48-1.28,4.31-2.29,8.21-2.55,10.21-.16,1.19-.24,2.51-.34,3.96-.37,5.67-.89,13.43-5.51,22.97-1.65,3.4-1.35,5.39-.97,7.9.73,4.8.81,9.14-4.83,16.66.89,1.53,1.81,3.78,1.94,6.69Z"/>
        <path class="cls-1" d="m77.48,640.51c2.1.09,4.18.12,6.25-.13,0,0-3.96-1.29-5.88-1.92-1.92-.59-3.79-1.27-5.6-2.04-1.82-.78-3.36-2-5.16-2.61-1.81-.66-3.57-1.29-5.81-1.84l-.29.3c.71,2.27,2.35,3.95,4.13,5.21,1.8,1.31,4.04,1.63,6.1,2.11,2.07.49,4.16.78,6.25.91Z"/>
        <path class="cls-1" d="m75.52,583.7c1.85.24,2.97-.19,5.36-4.18s-.03-8.86-1.86-5.64c-.98,1.72-2.3,2.54-3.34,2.96-.45,2.03-.91,4.13-2.19,5.59-1.39,1.58-1.84,3.22-1.78,6.56.06,3.34-1.64,3.43-3.29,5.75-1.65,2.32-2.43,3.7.76,5.25,1.53.74,3.09.19,4.32-.57,1.23-2.3,2.42-4.6,3.53-6.86-1.08-.64-1.63-2.25-1.63-2.25,2.69-.56,2.75-3.45,2.75-3.45-1.12.43-4.47-3.39-2.62-3.15Z"/>
        <path class="cls-1" d="m181.92,572.05c1.03-2.12,1.61-6.07,3.43-10.4,1.82-4.33,3.42-14.28,4.86-19.86s8.32-28.03,8.32-28.03c-2.46-.87-15.98-4.86-16.09-7.67-.11-2.81,5.02-15.65,5.02-15.65-1.88-.95-31.42-8.14-31.42-8.14,1.86,5.64,7.53,6.83,11.67,9.97,4.14,3.13-1.34,9.21-3.03,6.95-1.69-2.26-4.23-6.76-5.07-5.96-.84.81-.03,5.52,1.99,11.5,2.02,5.98,3.9,6.92,3.9,6.92-.83-3.89,2.27-6.39,2.27-6.39,3,6.33,15.78,18.63,15.78,18.63,4.16,6.19,2.75,18.69-.91,16.56-3.67-2.14-8.54-1.66-8.54-1.66,4.07,2.56,8.29,10.15,8.29,10.15-2,.95-8.31-.75-8.31-.75,2.91,2.7,6.58,8.71,5.92,12.9s1.92,10.92,1.92,10.92Z"/>
        <path class="cls-1" d="m92.96,653.3c2.72.29,5.42.48,8.13.62,2.71.07,5.4.14,8.1.14,0,0-10.49-2.69-15.63-4.04-2.58-.66-5.02-1.75-7.61-2.13-2.6-.42-5.2-.79-8.11-.72l-.16.39c2.07,2.08,4.59,3.37,7.17,4.36,2.59,1.02,5.4,1.08,8.1,1.39Z"/>
        <path class="cls-1" d="m40.82,686.35c-2.77-2.23-5.32-4.88-8.63-6.34-1.63-.77-3.33-1.41-5.11-1.88-1.77-.48-5.86-.22-5.86-.22,2.38,3.08,5,5.33,7.74,7.46,2.69,2.17,6.01,3.35,9.02,5.1,2.99,1.75,5.98,3.55,8.94,5.39,3,1.81,5.89,3.76,8.79,5.77,0,0-4.34-5.73-6.86-8.24-2.57-2.46-5.24-4.81-8.02-7.04Z"/>
        <path class="cls-1" d="m64.36,648.85c1.62.63,3.16,1.2,4.91,2.14-.35-2.01-1.76-3.66-3.18-4.92-1.47-1.26-3.1-2.22-4.73-3.01-1.64-.8-3.3-1.4-4.92-1.97-1.64-.62-3.17-.94-4.73-2.16-.06,1,.43,2.06,1.02,2.87.62.82,1.33,1.53,2.08,2.14,1.51,1.2,3.13,2.1,4.73,2.88,1.61.77,3.22,1.41,4.82,2.04Z"/>
        <path class="cls-1" d="m126.74,689.12c7.62.18,15-.78,22.31-2.06,2.98-.52,7.52-1.72,11.09-2.78-1.68,1.31-3.07,3.02-3.07,3.02,5.22-1.05,6.82,1.05,6.82,1.05-9.34,1.3-12.09,4.1-12.88,5.88,3.84-.19,7.3-.63,10.65-1.72,2.13-.7,3.58-1.09,4.68-1.32.24-3.77.58-7.77.96-11.81l-.9-3.46c-1.06.27-2.11.53-3.13.78.94,2.19-.1,5.02-.49,5.93-4.74.34-9.46.81-14.16,1.23-3.66.29-7.29.68-10.93.86-3.63.23-7.24.4-10.81.24-7.16-.17-14.33-1.48-21.62-2.57-7.25-1.11-14.79-2.19-22.2-1.22,7.38.77,14.39,2.71,21.57,4.41,7.16,1.74,14.52,3.28,22.11,3.55Z"/>
        <path class="cls-1" d="m122.96,392.27c-1.22-.16-1.43,1.56-.43,1.98.7.88,2.31.05,1.74-1.07-.29-.57-.68-.83-1.31-.91Z"/>
        <path class="cls-1" d="m224.71,390.15s.06.08.09.12c.69.96,1.61,1.56,2.83,1.68.36.03,2.29-1.95,1.19-2.42-.95-.41-4.76-.37-4.21.5.03.05.07.08.1.13Z"/>
        <path class="cls-1" d="m223.05,401.2c-.21.43-.47.8-.75,1.15-1.04.03-1.85.67-2.55,1.45-1.03,1.17-1.96,2.4-2.54,3.85-.41,1.03.87,1.71,1.65,1.15.78-.55,1.55-1.11,2.33-1.66.31-.22.41-.51.39-.79.05-.06,2.27-2.22,3-3.51.98-1.74,1.62-3.38,3.01-4.87.91-.97-3.69,1.42-4.55,3.23Z"/>
        <path class="cls-1" d="m222.72,399.09c.97-.93-.37-2.52-1.34-1.6-.07.07-.14.13-.21.2-.97.93.37,2.52,1.34,1.6.07-.07.14-.13.21-.2Z"/>
        <path class="cls-1" d="m139.47,404.73l-1.31-.47c-1.27-.45-1.96,1.51-.7,1.96l1.31.47c1.27.45,1.96-1.51.7-1.96Z"/>
        <path class="cls-1" d="m151.32,411.44c-.03-.05-.07-.1-.11-.14-.56-.77-1.58-1.37-2.6-1.9-.85-.6-1.71-1.19-2.59-1.73-1.13-.7-2.14-1.02-3.42-.57-.6.21-.8,1.17-.35,1.61,1.81,1.8,5.31,5.83,8.28,4.92.96-.3,1.34-1.29.81-2.16,0,0-.01-.02-.02-.02Z"/>
        <path class="cls-1" d="m207.48,330.12c.03.72.23,1.47.64,2.17,1.11,1.92,3.27,2.75,4.82,1.86,1.55-.9,1.91-3.18.79-5.11-1.02-1.75-2.9-2.58-4.4-2.03-.08-.4-.23-.81-.45-1.2-.89-1.54-2.62-2.21-3.87-1.49-1.24.72-1.53,2.55-.63,4.09.72,1.25,1.98,1.88,3.1,1.71Z"/>
        <path class="cls-1" d="m188.89,334.47c.27.1.57-.05.67-.32.1-.27-.04-.57-.32-.67-.27-.1-.57.05-.67.32-.1.27.05.57.32.67Z"/>
        <path class="cls-1" d="m185.75,322.35c.41-.03.71-.39.67-.8-.03-.41-.39-.71-.8-.67-.41.03-.71.39-.67.8.03.41.39.71.8.67Z"/>
        <path class="cls-1" d="m205.93,367.95c.41-.03.71-.39.67-.8-.03-.41-.39-.71-.8-.67-.41.03-.71.39-.67.8.03.41.39.71.8.67Z"/>
        <path class="cls-1" d="m192.6,338.42c.27-.02.47-.26.45-.53-.02-.27-.26-.47-.53-.45s-.47.26-.45.53c.02.27.26.47.53.45Z"/>
        <path class="cls-1" d="m194.85,354.8c.34-.97,1.61-2.74,3.12-2.2-1.05-.37-1.57-1.84-1-3.44-.48,1.34-1.51,2.55-2.98,2.03,1.2.43,1.65,1.38.86,3.62Z"/>
        <path class="cls-1" d="m205.89,337.3c-.03-.41-.39-.71-.8-.67-.41.03-.71.39-.67.8.03.41.39.71.8.67.41-.03.71-.39.67-.8Z"/>
        <path class="cls-1" d="m70.51,398.03s-.19.92,1.16,4.5c0,0-.11-7.07,1.96-12.89,0,0,1.83-2,10.37.88.4-3.27,1.08-6.57,2.07-9.88-2.27.16-5.26.82-9.95,2-5.63,1.41-8.58,3.71-10.02,5.27-.24,1.74-.71,6.06-.72,12.34,1.39-.83,3.56-1.99,5.12-2.22Z"/>
        <path class="cls-1" d="m24.15,416.96c5.03,4.72,11.71,12.4,17.51,22.67,4.66,8.27,7.33,16.59,8.82,24.08,2.04-.1,3.34-7.77,4.1-14.85,0-3.08-.18-6.16-.5-9.24-.35,1.76-.89,3.65-1.74,5.68-1.26-13.55-6.85-22.41-6.85-22.41,1.65,2.8.63,6.73.63,6.73l-1.4,1.59c.78,4.02-.95,6.57-.95,6.57-6.87-12.58-15.01-18.36-19.62-20.8Z"/>
        <path class="cls-1" d="m46.07,413.37c.8,1.09,1.35,2.32,2.13,3.37.76,1.08,1.48,2.14,2.29,3.37l.21-.04c.32-1.5-.08-3.03-.68-4.36-.6-1.36-1.69-2.39-2.67-3.42-2.01-2.03-4.23-3.85-6.83-5.01,0,0,2.01,1.95,2.94,2.96.95.99,1.83,2.03,2.61,3.13Z"/>
        <path class="cls-1" d="m122.28,390.58c-.01-.1-.02-.19-.04-.29-.17-1.33-2.22-.94-2.05.39.01.1.03.19.04.29.17,1.33,2.22.94,2.05-.39Z"/>
        <path class="cls-1" d="m175.34,583.54c-9.93-2.72-19.9-5.22-29.76-8.11-9.9-2.74-19.77-5.61-29.61-8.54-9.83-2.96-19.68-5.89-29.45-9.04-9.23-2.89-18.44-5.88-27.57-9.01,1.68-10.02,3.96-20.04,6.15-30.04,2.25-10.11,4.61-20.21,6.97-30.3l12.85,2.33,14.34,2.51.79.14.24-.7c1.51-4.37,2.61-8.77,3.74-13.18,1.12-4.41,2.11-8.84,3.06-13.29l-4.02,13.02c-1.3,4.06-2.61,8.15-4.19,12.05l-13.46-3.04-14.22-3.13-1.41-.31-.39,1.44c-2.86,10.49-5.54,21.02-8.09,31.59-1.3,5.28-2.49,10.59-3.64,15.91-1.14,5.33-2.26,10.65-3.14,16.09l-.28,1.73,1.65.56c9.78,3.33,19.59,6.44,29.45,9.43,9.88,2.92,19.76,5.8,29.73,8.4,9.95,2.66,53.55,16.02,60.26,13.5Z"/>
        <path class="cls-1" d="m78.69,363.6l-11.38-2.8c-.62,2.42-1.2,4.81-1.73,7.11,3.61.34,10.03,1.04,18.91,2.3-.16-2.29-2.67-4.6-5.81-6.61Z"/>
        <path class="cls-1" d="m164.68,597.71c.16-1.31-.38-2.71-1.35-3.67-.98-.94-2.4-1.44-3.71-1.24-1.3.16-2.48.98-2.92,2.08,2.13-.95,3.99-.48,5.17.66,1.17,1.14,1.7,3,.81,5.15,1.08-.48,1.87-1.67,1.99-2.98Z"/>
        <path class="cls-1" d="m168.46,627.75c-.14-.96-.49-2.68-.92-4.77-.72-.4-1.62-.94-2.45-1.59-1.35-1.06.4-2.69,1.14-4.53-.39-1.8-.78-3.62-1.14-5.36-1.34-2.41-3.4-5-5.23-6-2.67-1.46-.85-5.27-3.66-5.26-.06.23-.09.37-.09.37-.99,3.06.33,8.81,1.13,11.75.59,1.01,1.14,2.04,1.6,3.14,0,.02.01.03.02.05,2.55,3.94,5.91,13.6,5.91,13.6-1.23,1.91-.41,6.73-.41,6.73l1.87.85c-.63.77-1.45,1.58-1.78,3.26.08.48.15.96.23,1.44.56,3.04,1.17,6.07,1.82,9.1,1.12,1.96,2.43,2.33,3.52,2.14.1-1.06.19-2.08.27-3.03.22-2.64.35-5.14.43-7.55-.07-.45-.16-.9-.23-1.35-.67-4.33-1.44-8.77-2.02-13.02Z"/>
        <path class="cls-1" d="m114.59,378.17c0,.14,0,.27,0,.41-.03,1.34,2.05,1.5,2.08.15,0-.14,0-.27,0-.41.03-1.34-2.05-1.5-2.08-.15Z"/>
        <path class="cls-1" d="m119.42,383.07c-1.27-.45-1.96,1.51-.7,1.96,1.27.45,1.96-1.51.7-1.96Z"/>
        <path class="cls-1" d="m199.2,300.18c-13.66-4.75-21.43-4.91-25.28-4.41,6.19.83,12.65,2.3,19.37,4.44,28.29,9.04,43.24,23.3,50.44,38.66,1.47,2.67,3.85,6.67,4.24,5.42,2.01-6.37-5.38-19.02-6.66-21.15-7.28-10.8-19.25-20.62-38.08-27.87,1.82,4.1-4.03,4.9-4.03,4.9Z"/>
        <path class="cls-1" d="m201.32,276.52c-22.62-7.26-42.62-6.53-59.43,2.18-9.9,5.13-18.6,13.11-25.65,23.35-.43,1.38-.59,2.51-.6,3.41,3.54-4.06,7.43-7.61,11.65-10.6-.23.14-.36.23-.36.23,9.81-9.72,13.67-9.59,15.58-11.31,1.9-1.72,6.35-2.54,9.24-3.17,2.9-.63,1.76-1.59,4.91-2.64,3.14-1.05,5.31-1.19,5.31-1.19-1.3-.74-3.14-1.81-3.14-1.81,0,0,8.03-1.06,11.94-1.14,3.9-.09,7.82.32,13.77,2.51,5.56,2.04,2.33,4.33-1.49,5.47-2.48.74-3.02,1.95-3.11,2.72,5.57.91,11.34,2.3,17.31,4.21,49.63,15.89,59.75,47.29,58.18,73.48,4.66-28.83-.26-68.38-54.13-85.69Zm-7.87,7.97c-.9-.22-1.82-.25-2.6-.57l-2.52-1.03-.04-.2c.84-.75,2.01-.89,3-.8,1.03.07,1.87.64,2.72,1.04,1.7.81,4.97,2.64,4.97,2.64-1.89-.14-3.75-.62-5.54-1.07Zm13.06,1.09c-.98.56-2.15.45-3.1.16-.99-.28-1.7-1.02-2.44-1.59-1.5-1.15-4.32-3.62-4.32-3.62,1.82.53,3.54,1.39,5.19,2.2.83.41,1.73.62,2.42,1.1l2.25,1.53v.21Z"/>
        <path class="cls-1" d="m61.79,434.82c-2.61-6.65-3.95-14.04-3.95-14.04-.88,1.95-2.35,4.34-3.26,5.75.62,1.92,1.15,3.87,1.66,5.8,1.36,5.45,2.37,11.02,2.82,16.66.37,5.02.46,10.09.12,15.13,5.86-5.6,8.46-12.1,9.59-16.53-.84-2.94-1.74-6.26-2.71-10.06-1.53-5.98-2.59-11.56-3.34-16.71-.65,5.12-.93,14-.93,14Z"/>
        <path class="cls-1" d="m86.48,414.63c-.56-1.67-1.05-3.36-1.45-5.07-1.74.47-4.12,1.19-5.68,2,0,0-4.09-1.64-5.14-4.9,0,0-1.56,3.25-.66,5.97,0,0-3.31-1.41-4.22-3.53,0,0-.64,1.02-.06,2.88,0,0-1.68.72-3.21,1.66.66,6.7,1.87,14.4,4.03,22.85,2.3,9.01,4.18,15.21,5.66,19.5,2.1,1.04,4.1.63,4.1.63-1.74-4.71-.68-9.57-.68-9.57,2.48,8.49,7.77,12.09,7.77,12.09-2.44-9.35-.01-15.01-.01-15.01-8.18-17.83-6.39-25.94-6.39-25.94,1.61-2.35,4.57-3.27,5.94-3.58Z"/>
        <path class="cls-1" d="m280.19,507.64c-2.11.74-4.31,1.87-6.82,2.81-2.37.9-4.75,1.72-7.17,2.5-2.38.79-4.89,1.53-7.72,1.03,1.96-1.97,4.02-3.29,6.24-4.45l6.52-3.65c2.04-1.13,4.15-2.59,6.68-3.74,1.6-.72,3.41-1.41,5.43-1.66.04-2.4-.06-4.98-.43-6.1l-2.06-4.53c-6.34-1.01-14.71,1.05-24.27,6.09-4.5,2.37-8.15,4.61-11.17,6.74,2.97.68,1.61,5.1.34,8.01,2.88-1.1,5.8-2.1,8.75-2.97,3.24-.86,6.49-1.76,9.87-1.99,0,0-6.16,2.58-9.16,3.94-3.01,1.32-5.97,2.77-8.85,4.33-.99.53-1.95,1.11-2.9,1.69-1.56,5.12,1.82,7.41,1.82,7.41,2.92-.16,5.5,2.42,5.5,2.42-2.36,1.97-9.45,4.78-9.45,4.78,6.35,1.21,14.72-2.86,14.72-2.86,1.46,9.51-9.94,17.17-9.94,17.17,4.04,1.35,5.04,3.46,5.04,3.46-10.04.48-13.01,3.39-13.01,3.39,0,0,15.48-2.35,16.37,3.25,1.79,11.29,9.63,15.97,9.63,15.97-14.1,1.17-21.88,4.15-25.64,6.12,3.01-.5,6.09-.78,8.95-.85,3.3-.08,6.38-.39,9.35-.69,6.41-.65,12.46-1.26,19.71.45,2.44.58,4.4.62,6.48.67,3.33.08,6.77.19,11.52,2.61,1.03-2.45,2.47-7.34,1.27-13.83-.65-3.54-.42-5.51-.22-7.25.18-1.56.33-2.78-.27-5.45-.17-.76-.36-1.56-.55-2.37-1.17-4.99-2.49-10.65-1.92-15.49.54-4.59-1.24-15.37-2.48-18.14-.95-2.12-1.13-4.07-1.27-5.63-.23-2.56-.31-3.23-3.35-4.13-1.5-.19-3.49.21-5.54.95Zm2.7,48.6c-1.64-2.41-3.37-4.83-4.94-7.47-1.55-2.6-3.57-5.38-3.73-8.85-.23-3.36.69-7.02,3.23-9.39l.6.18c.83,3.28,1.48,5.67,2.33,8.1.89,2.35,1.08,5.1,2.08,7.79l3.21,8.22c.98,2.85,1.97,5.79,2.18,8.83,0,0-3.28-5.01-4.97-7.41Z"/>
        <path class="cls-1" d="m1.65,763.19c-5.2-5.31-10.72-10.93-16.44-15.74-1.98.39-4.63,1.24-5.96,3.14,0,0-5.49-3.24-8.84-3.15,0,0,11.91,6.45,14.14,13.15,0,0-6.46-4.14-9.52-4.87,0,0-1.95,3.92-1,8.5,0,0-4.35-2.29-7.99-1.92,0,0,7.41,3.01,11.35,6.99,0,0-7.63-3.45-14.24-2.49,0,0,2.8,3.03,4.94,5.82,0,0,6.89,6.05,3.92,22.15,0,0-12.34-9.65-21.26-10.24,0,0,4.45,3.06,6.75,5.91-4.49,1.72-6.18,8.04.61,18.48,0,0-11.69-6.56-16.52-12.15,0,0,.8,10.82,21.32,18.62,2.01-.31,4.05-.5,6.07-.59,2.51-.11,5.03.03,7.55.3,2.11-1.07,1.51-3.24.2-5.31-1.38-1.07-2.73-2.18-4.02-3.33-4.2-3.75-8.22-7.75-11.54-12.35l13.6,9.76c2.29,1.57,4.47,3.22,6.82,4.57,1.28.82,2.5,1.74,3.63,2.91.56.6,1.11,1.24,1.59,2.1.23.44.45.94.58,1.57.12.64.11,1.5-.28,2.3-.38.8-1.04,1.33-1.59,1.64-.55.29-1.08.46-1.55.55-.95.19-1.77.21-2.58.19-1.55-.05-3.12-.34-4.42-.56-2.64-.52-5.34-.79-8.05-1.01-4.88-.29-9.81-.33-14.78.32-1.22.43-2.36.94-3.3,1.54,0,0,4.53,1.8,6.83,2.06,0,0-15.05,12.72-16.26,21.33-1.22,8.61-6.33,14.16-9.17,15.92,0,0,5.03,1.42,9.67-2.28,0,0-2.05,6.28-8.99,9.71,0,0-3.48,6.14,3.71,12.39-4.69.8-19.49,6.05-19.82,15.39.34-.43.69-.85,1.05-1.26,3.29-3.63,7.47-6.32,12.07-7.72,2.28-.71,4.59-.99,6.74-1.27,2.2-.22,4.23-.51,6.41-1.27-1.36,1.89-3.51,3.16-5.52,4.19-.92.44-1.8.86-2.67,1.29-2.77,4.21-9.16,15.56-7.74,29.16,1.52,14.61-10.11,3.65-14.08-4.3-1.32-2.1-1.69-4.67-1.45-6.94.2-1.74.63-3.39,1.21-4.96-1.67,1.56-5.39,6.29-3.38,16.17,0,0-4.57,3.68-5.32,11.15,4.69,1.98,9.78,3.82,15.09,5.33,9.17,2.6,18.42-.04,19.79-.47,5.5-3.85,7.81-6.4,10.51-11.6.52-1,1.13-2.03,1.72-3.06-.34.2-.69.38-1.03.59-3.11,1.92-6.07,4.22-8.75,6.88,1.85-3.3,4.12-6.4,6.75-9.28,2.34-2.52,4.98-4.89,8.25-6.75,1.15-1.89,2.19-3.67,2.91-5.22,1.53-3.26,1.21-9.27.95-11.31l-.24-1.91,1.59-1.08c4.8-3.25,6.32-5.48,7.86-14.93.59-3.65,1.29-6.49,1.95-8.67-1,.09-1.98.13-2.92.12-2.94-.02-5.6-.24-8.16-.16-2.55.07-5.01.57-7.47,1.43-2.46.87-4.89,2.07-7.57,3.25,1.51-2.47,3.52-4.67,6.02-6.33,2.51-1.65,5.48-2.7,8.45-3.26,2.98-.56,5.89-.6,8.5-.82,2.63-.25,4.94-.61,7.09-1.46l.06-.02c7.64-2.95,7.3-7.37,6.88-12.96-.05-.6-.09-1.19-.12-1.76-.2-3.54.52-7.42,1.26-10.33-.43.25-.86.51-1.28.76-1.6.94-3.13,2.01-4.44,3.36-1.35,1.33-2.64,2.77-4.41,4.34-.39-2.34.26-4.62,1.41-6.6,1.18-1.96,2.7-3.77,4.47-5.24,1.75-1.5,3.7-2.71,5.7-3.71,2-1,6.62-2.85,8.71-3.44v.02c.07-.02.14-.04.21-.06,1.02-1.03,1.99-2.68,1.24-4.88-1.22-3.62.17-3.67,3.26-5.6,3.29-2.92,3.68-5.34,4.09-8.11.19-1.29.4-2.71.93-4.16-.14-.32-.3-.62-.51-.86-2.23-2.55-4.47-4.54-4.35-9.02.12-4.48,2.26-.39,3.06,2.29.64,2.17,2.47,3.65,3.62,3.39.54-1.63.78-3.02.82-3.23.03-1.29,0-2.59-.18-3.88-.17-1.56-.6-3.07-1.13-4.58-1.15-2.96-3-5.86-5.74-7.93,3.26,1.16,6.15,3.5,8.45,6.37.96,1.28,1.84,2.66,2.56,4.13.41-.95.8-2,1.08-3.01l.2-.7c1.48-6.8,1.79-9.77-9.63-21.42Zm-15.46,26.72c-2.08-2.34-3.26-5.11-4.97-7.52-1.67-2.42-3.55-4.69-5.67-6.76-2.09-2.11-6.69-6.12-6.69-6.12,2.78,1.25,5.48,2.75,8.03,4.53,2.5,1.84,4.82,3.97,6.93,6.27,2.09,2.31,4.25,4.59,5.73,7.14,1.53,2.55,4.46,7.92,4.46,7.92-3.2-.82-5.79-3.13-7.82-5.45Zm9.34-7.79c-1.04-1.09-2.17-2.1-3.36-3.1-2.37-2.03-4.8-4.24-6.51-7.05,1.45.78,2.76,1.67,4.06,2.58,1.3.9,2.56,1.85,3.8,2.89,1.21,1.07,2.41,2.26,3.29,3.7.9,1.42,1.48,3.02,1.63,4.66-.96-1.34-1.88-2.58-2.92-3.68Zm.75-14.69c-.99-.84-2.12-1.47-3.04-2.36-.93-.88-2.64-3.07-2.64-3.07,1.44.12,2.73.69,3.9,1.41,1.19.71,2.04,1.82,2.94,2.82,1.8,2.01,4.61,6.56,4.61,6.56-1.9-1.85-3.79-3.69-5.77-5.36Z"/>
        <path class="cls-1" d="m-7.04,737.37c-.14-.11-.28-.21-.42-.32-1.76-.16-3.12.02-3.12.02,2.92,2.15,8.52,8.2,11.9,14.75-8.79-8.52-17.19-14.71-27.44-17.01,11.08,5.42,21.41,15.93,30.75,25.47,8.43,8.61,11.17,14.79,11.58,20.22,1.17-1.51,2.01-3.17,2.33-4l.13-.33c2.52-6.18-7.13-23.83-25.71-38.8Z"/>
        <path class="cls-1" d="m83.6,724.46l.98.77.18,1.23c.1.68.53,4.22-.86,7.06-.33.68-.4,1.14,1.45,5.04,1.83,3.85.73,6.13-.14,7.96-.66,1.37-1.4,2.91-1.41,6.25-.03,7.21.66,18.24,2.67,27.69,1.16-1.4,2.55-2.78,4.19-4.01-1.72-3.64-1.56-8.36-2-16.06-.49-8.48-.56-10.35,1.86-15.57,2.41-5.23-2.57-8.85-3.15-12.93-.58-4.08,2.47-10.56,2.47-10.56-4.46-.32-7.9-2.1-12.44-3.83-1.15-1.22-2.33-2.24-3.56-3.22-1.32-1.08-2.92-1.79-4.37-2.71-2.91-1.85-8.87-5.53-8.87-5.53,2.42,2.53,4.96,4.93,7.66,7.19.9.75,1.76,1.56,2.71,2.26-.2-.05-.37-.1-.57-.15-8.7-1.99-17.74-6.13-17.74-6.13,0,0,4.7,3.89,3.18,8.69-1.53,4.81-5.59,7.42-5.59,7.42-.66-2.82-5.69-4.24-5.69-4.24,1.99,2.18,2.06,6.64,2.06,6.64-.96,3.72-4.05,7.23-4.05,7.23-1.56-9.6-9.2-12.5-9.2-12.5,0,0,3.63,2.77,3.45,11.56s-13.34-3.46-13.34-3.46c-10.43-9.52-19.34-13.08-23.76-14.37.71.44,1.4.84,2.12,1.31,21.16,13.84,24.59,21.55,27.9,29.01.29.64.57,1.28.86,1.92,2.22,4.8,2.11,10.3,1.46,14.58.62-.93,1.26-2.24,1.91-4.15,2.53-7.39,7.56-14.48,11.16-17.94,1.05-1.01,2-3.09,2.92-5.1,1.4-3.07,2.84-6.23,5.53-7.78,1.63-.94,3.72-4.83,4.62-7.17l.52-1.34,1.35-.48c.47-.17,11.6-3.99,23.55,5.41Z"/>
        <path class="cls-1" d="m48.52,871.63c-.11.73-.11,1.21-.02,2.16.1,1.1.27,2.25.46,3.42,1.15-6.79,7.91-13.99,9.73-15.03,2.09-1.19,5.71-3.22,12.01-8.87,6.3-5.64,4.97-15.11,4.97-15.11,5.51-1.5,8.17-6.64,8.17-6.64.91,1.71,4.35,2.93,4.35,2.93-4.69-6.65-5.39-10.5-2.94-13.5s2.15-4.49,3.08-9.42c.4-2.15.98-4.02,1.5-5.49-2.24,1.84-3.38,3.79-3.54,4.07-.06.19-.12.36-.17.56-.22.82-.35,1.82-.67,3.19-.31,1.36-1,3.06-2.02,4.34l-.5.63c-.13.15-.24.32-.36.48-.23.32-.45.66-.63,1-.38.69-.67,1.41-.85,2.14-.37,1.48-.31,3.01.19,4.51l.53,1.58-.7,1.15h0c-.66,1.28-1.88,2.61-3.3,3.32-1.4.72-2.69.94-3.69,1.1-1,.15-1.77.26-2.14.41-.38.16-.29.13-.43.31-.03.04-.06.12-.1.2l-.14.41c-.12.27-.15.57-.23.86-.1.59-.12,1.25-.08,2,.06,1.52.59,3.42.3,6.17-.16,1.37-.73,2.91-1.59,4.08-.48.69-.73.92-1.05,1.32l-.96,1.1c-1.3,1.47-2.69,2.92-4.31,4.29-.82.68-1.71,1.35-2.74,1.94-.52.3-1.07.58-1.7.82-.3.12-.63.23-.98.32l-.42.11s0,0-.02,0c-.23.06-.87.45-1.42.92-.57.47-1.16,1.03-1.72,1.63-2.25,2.41-4.22,5.41-5.29,8.4-.26.74-.46,1.49-.56,2.18Z"/>
        <path class="cls-1" d="m179.08,342.87c.41-.03.71-.39.67-.8-.03-.41-.39-.71-.8-.67-.41.03-.71.39-.67.8.03.41.39.71.8.67Z"/>
        <path class="cls-1" d="m291.89,673.5c.06-2.9-.14-6.01-.34-9.3-.34-5.46-.69-11.1.18-15.98,1-5.62.12-9.05-1.2-11.53-4.96-6.57-15.31-9.78-23.63-11.16.1,1.81-2.87,3.85-2.87,3.85-5.13-1.13-14.46-.58-15.87,1.82,4.3-.82,13.04,1.46,13.04,1.46-2.51,3.16-3.1,8.72,1.89,14.51-8.82-.1-11.09,3.52-11.09,3.52,6.66.71,16.8-.52,20.33,6.27-10.74,2.96-11.14,12.64-11.14,12.64-9.07-2.12-9.16.47-12.4-.54-1.22-.38-2.56-4.2-3.37-6.86-.38,1.27-.46,2.35-.32,3.3.12.96.39,1.86.75,2.87.35,1,.93,2.09,1.72,2.77.37.34.79.55.98.63-.23.14,1.03-.06,1.79-.12,1.68-.14,3.33-.11,4.97-.04,3.27.22,9.51,2.23,9.51,2.23-1.13.02-2.23.12-3.34.21l-.94,6.37c-12.68,1.39-16.15,5.8-17.09,8.41.22-.13.42-.27.64-.4,1.22-.62,2.47-1.18,3.71-1.75,2.49-1.11,5.14-1.94,7.86-2.23,2.72-.28,5.46-.02,7.98.68,0,0-5.2.58-7.58,1.36-.82.25-1.61.6-2.39.94-7.35,5.4-6.6,9.2-5.37,11.05,1.77-.11,3.55-.11,5.33.03,9.88.79,14.84,3.39,19.22,5.69,1.18.62,2.34,1.23,3.59,1.79,2.23,1,3.92,2.41,5.21,3.9,0-.02,0-.05.01-.08.4-2.56.78-4.98,1.59-6.83,1.73-3.96,8.49-22.46,8.64-29.5Zm-11.6-23.4c-1.69-1.32-3.45-2.54-5.24-3.6-.46-.25-.91-.51-1.39-.7-.43-.18-1.01-.46-1.61-.79-1.14-.68-2.13-1.66-2.78-2.81-1.28-2.32-1.57-5.02-.52-7.34h.42c1.25,2.04,2.31,3.68,3.53,4.96l1.78,1.86c.3.29.63.61,1.14.99l1.35,1.11c1.77,1.47,3.36,3.09,4.79,4.84,1.37,1.79,2.77,3.58,3.56,5.75,0,0-3.33-2.94-5.02-4.26Z"/>
        <path class="cls-1" d="m278.84,717.21s.01-.01.02-.02c-.62-1.54-2.05-4.16-4.97-5.47-1.37-.61-2.64-1.28-3.94-1.96-4.13-2.17-8.06-4.21-16.3-4.94-1.3.82-2.48,1.86-2.89,3.07,0,0-4.2.63-5.21,3.11,1.03-.27,2.07-.47,3.11-.53,1.52-.08,3.05.03,4.53.41,1.47.35,2.93.9,4.2,1.86-2.08.38-4,.55-5.89.68-1.25.69-3.37,2.22-3.34,4.65,6.73-.63,12.92.98,18.74,4.96,2.87,1.96,4.65,3.8,5.75,5.46.31-.71.61-1.51.86-2.49,1.4-5.55,3.24-7.26,5.33-8.78Z"/>
        <path class="cls-1" d="m279.65,475.39c-.75-2.32-3.75-10.28-7.56-16.2-3.31-5.15-9.13-13.19-14.67-18.89-.18-.19-.37-.36-.55-.55-1.45,6.97-5.89,19.94-19.26,37.52l-4.68,12.12c4.43-4.42,10.94-8.19,16.63-16.4.74,8.01-8.7,20.15-8.7,20.15-5.02,4.89-5.59,9.08-5.35,11.47,4.88-4.12,11.22-8.19,19.13-12.35,16.11-8.48,26.13-7.7,32.05-4.97-.84-1.47-1.17-2.65-1.39-3.47-.07-.25-.16-.6-.34-.8-1.73-1.3-4.16-4.08-5.31-7.61Zm-13.88,5.15c-1.52.71-3.04,1.44-4.73,2.03-.86.29-1.71.62-2.89.73-.6.01-1.33.13-2.44-.48-.54-.32-1.03-.93-1.23-1.48-.21-.55-.24-1.04-.23-1.41.1-1.49.51-2.31.88-3.2.4-.86.82-1.65,1.3-2.41.93-1.52,2-2.84,2.96-4.19,2-2.66,4.01-5.03,4.95-8.4.58,1.68.44,3.6,0,5.34-.44,1.76-.88,2.97-1.95,4.93-2.72,4.93.41,5.94,2.09,5.7,1.68-.23,3.62-.84,5.37-1.04,1.73-.17,3.59-.2,5.23.44-3.4.43-6.24,2.07-9.3,3.43Z"/>
        <path class="cls-1" d="m298.14,314.6l-2.77,11.25c.89,1.77.99,3.58.99,3.58-1.18.81-2.09,2.22-2.76,3.62l-1.1,4.46c1.58,1.49,4.96,1.54,4.96,1.54-1.15,1.16-3.73,2.45-3.73,2.45.8,1.39,4.25,3.36,2.34,5.08-1.9,1.72-4.68,1.75-5.77,4.49-1.09,2.75.47,4.96.47,4.96-1.26.81-3.25,3.94-4.41,6.4l-2.88,11.7c3.68,7.21,8.45,6.94,11.31,6.03.12-.35.23-.69.35-1.04,2.57-7.61,5.49-16.23,6.85-24.42.25-1.53,1.11-4.5,2.47-9.22,1.34-4.64,3.59-12.4,3.59-14.06.02-12.07-6.23-15.72-9.9-16.82Zm-.65,19.11c1.04-2.67,6.5-7.65,6.71-5.64.39,3.8-6.71,5.64-6.71,5.64Z"/>
        <path class="cls-1" d="m264.55,726.47c-7.04-4.8-14.42-5.65-23.19-2.7,7.1,4.08,6.51,10.39,6.51,10.39-8.65-1.42-10.05,1.82-10.05,1.82,7.92-1.19,15.3,3.46,15.3,3.46-10.59,1.76-10.46,10.3-10.46,10.3-4.92.32-8.09,3.62-8.09,3.62-6.98-3.87-10.58.66-10.58.66,3.56-.53,7.83,2.37,7.83,2.37-1.94,1.94-5.13,7.81-5.13,7.81-2.94-1.46-4.69,1-4.69,1,1.96.97,2.24,3.15,2.24,3.15-3.51,5.35-7.91,7.26-10.36,7.94.04.17.07.34.13.52.09.28.22.55.82.73,1.64.49,5.06-.3,7.74-2.41,2.02-1.6,4.03-4.75,6.16-8.08,1.98-3.11,4.03-6.32,6.47-8.87,3.06-3.21,6.61-3.7,9.54-2.49,2.5,1.03,3.65,3.47,3.65,3.47-1.57-.23-3.55-.05-5.58,1,2.51,3.42,2.29,7.72,1.46,11.08.87-1.04,1.82-2.08,2.95-3.08.18,1.78.01,3.49-.41,5.15,5.71,4.1.54,13.67.54,13.67-.07-3.88-2.96-3.68-2.96-3.68.66,2.45-1.14,5.87-1.14,5.87-3.01,1.46-9.56,6.65-9.56,6.65.18-3.73-2.62-4.3-2.62-4.3.82,2.92-1.75,6.48-1.75,6.48-1.47.75-3.69,1.35-5.48,1.73,1.93.52,3.85.84,5.62.8,1-.02,1.95-.17,2.82-.46.44-.14.86-.33,1.23-.53.41-.23.86-.52,1.32-.85,1.84-1.34,3.91-2.95,6.07-4.39,2.19-1.45,4.56-2.75,7.1-3.67,2.31-.79,4.56-1.44,7.53-1.25-1.37,2.61-3.59,4.19-5.9,5.22-2.07.96-3.98,2.25-5.82,3.71-1.87,1.47-3.53,3.16-5.65,4.83-.54.42-1.11.84-1.76,1.25-.7.42-1.41.77-2.14,1.05-1.46.57-2.99.87-4.47.98-1.48.12-2.92.04-4.3-.15.02.01.03.02.05.04,2.89,1.95,6.01,3.03,9.13,2.59,1.57-.19,3.06-.73,4.64-1.57l4.97-2.53c3.37-1.61,6.44-3.7,10.6-4.04-2.17,3.04-5.26,4.6-8.19,6.4.07.46.45.9,1.46,1.2.25-.11.51-.2.76-.32,1.82-.84,7.28-1.66,10.23-7.74-.64-.07-1.28-.19-1.9-.36,1.41-1.18,2.78-2.17,3.72-3.18.98-1.01,1.31-1.96,1.77-2.97.22-.52.43-1.11.57-1.76.08-.32.12-.67.18-1,.07-.45.12-.9.21-1.36.31-1.81.93-3.65,1.71-5.3.78-1.65,1.66-3.09,2.43-4.46.61-1.12.68-1.65.52-2.97-.45-2.59-1.7-6.5-1.3-10.23.25-3.53.83-6.73,1.29-9.93.46-3.18.89-6.34.88-9.26l-.22-4.79c-.06-1.67-.07-3.33-.07-4.99,0-2.2.28-3.43.5-4.97-.46-1.59-1.68-4.14-4.85-6.3Z"/>
        <path class="cls-1" d="m225.3,783.09c.22.06.43.08.64.11.83.11,1.58.02,2.49-.23.63-.18,1.32-.48,2.03-.81.9-2.84,1.13-5.58,1.04-7.93-1.57,2.29-3.19,4.35-5.05,5.83-1.13.9-2.55,1.73-4.08,2.41.05.01.11.02.16.03.66.13,1.31.26,1.96.42l.81.19Z"/>
        <path class="cls-1" d="m170.92,823.27c1.62-.24,2.98-1.45,3.63-3.03-3.35-6.85-13.88-11.9-24.74-15.05,1.7,3.35,2.47,8.25,2.47,8.25-15.44-9.09-27.08-8.67-29.94-5.68,14.03-.54,20.14,5.23,20.14,5.23-5.54,19.57-32.37,12.41-32.37,12.41.51.77,1.63,1.46,3.02,2.06,2.62.56,5.21,1.13,7.8,1.54,3.29.53,6.59.82,10.14.68-1.63.96-3.43,1.59-5.29,1.99-11.81,3.9-23.37,3.72-23.37,3.72,7.35,3.45,29.47,5.7,29.47,5.7-6.2,7.57-12.32,2.99-17.67,10.13-3.78.13-7.85-1.27-7.85-1.27,3.76,3.83,16.53,10.31,16.53,10.31-5.81,0-14.03-3.2-14.03-3.2-5.16,1.75-5.44,4.93-4.99,6.97,3.28,1.38,6.57,2.71,10.05,3.97-3.82.42-7.66-.12-11.35-1-3.7-.9-7.32-2.21-10.74-3.97-3.41-1.77-6.62-4.03-9.37-6.76-.11-.11-.21-.24-.33-.36,3.9,11.53,27.54,18.6,27.54,18.6,0,0-7.48.15-13.36,5.39-5.88,5.24-18.05-1.49-18.05-1.49.97,6.48,17.05,13.13,17.05,13.13,0,0-17.7,2.55-27.43-5.34,4.32,8.46,14.92,12.51,14.92,12.51-14.6,1.63-8.2,9.81-8.2,9.81-5.72,1.29-16.81,1.35-16.81,1.35,6.82,3.4,12.86,2.36,12.86,2.36-6.72,14.21-9.7,31.27-9.7,31.27-6.91,15.25-35.32,5.41-35.32,5.41,3.79,4.39,11.45,6.2,11.45,6.2-3.21,3.29-6.9,4.16-9.75,4.22.84.57,1.71,1.15,2.61,1.72,11.76,7.48,19.81,6.3,20.09,6.25,13.81-2.83,20.8-9.91,25.81-16.47,6.32-8.27,12.53-11.54,16.64-13.71l.26-.14c2.46-1.3,9.55-8.17,18.07-17.51,1.83-2.01,2.98-3.67,3.89-5,1.62-2.35,3.14-4.56,6.57-4.91.67-.6,1.42-2.78,1.83-4.67-1,.02-2.05.03-3.17.04-10.3.11-34.91-.59-34.91-.59,8.7-5.4,23.2-5.55,34.85-5.67,5.54-.06,11.27-.12,13-.88,3.57-1.58,6.89-8.69,8.14-12.8l.35-1.15,1.02-.62c3.59-2.17,5.05-4.37,6.53-9.81,1.21-4.42,2.48-5.6,5.47-6.73.89-.33,1.9-.71,3.37-1.64.96-.61,1.66-1.53,2.2-2.55-.84-2.01-5.38-3.39-10.25-3.62-5.85-.28-.7-6.2,6.67-5.51,3.73.35,7.19.17,9.69-.09,2.68-.57,5.36-1.74,5.56-2.85.45-2.49-.02-4-.68-6.09-.07-.23-.15-.5-.23-.75-.48-.89-1.22-1.97-2.38-2.85-2.4-1.82-4-3.92-1.02-4.51,1.75-.35,3.11-1.26,3.95-1.95.97-1.66,2.26-3.12,3.37-4.36,1.06-2.73-6.16-6.28-3.68-6.64Zm-82.3,95.05c2.55-2.01,5.39-4.08,8.67-5.36,3.25-1.31,6.82-1.74,10.15-1.18-3.19,1.17-6.09,2.42-8.7,4.08-2.62,1.63-4.96,3.7-7.55,5.74-2.57,2.05-5.45,4.02-8.66,5.33-3.19,1.33-6.65,1.96-10.03,1.75,3.06-1.5,5.9-2.92,8.52-4.63,2.63-1.7,5.02-3.7,7.59-5.72Zm57.99-93.85c1.44-.08,2.84.22,4.16.66,2.61.96,4.94,2.53,6.59,4.76-2.61-.89-4.9-1.98-7.28-2.79-1.17-.43-2.36-.76-3.56-1-1.21-.22-2.44-.3-3.82-.14,1.02-.97,2.49-1.43,3.91-1.49Zm-25.76,56.61c-2.88.43-5.74.81-8.58,1.17l-8.52,1.05c-2.85.39-5.63.8-8.58,1.56,2.09-2.28,4.96-3.72,7.79-4.72,2.87-1.01,5.82-1.67,8.8-2.03,2.97-.38,5.97-.44,8.95-.27,2.97.2,5.99.56,8.86,1.69-2.98.59-5.84,1.14-8.72,1.55Zm15.85-6.72c-1.86.56-3.75.71-5.58.66-1.83-.05-3.6-.33-5.32-.72-1.74-.4-3.33-.93-5.21-1.43,1.59-1.23,3.59-1.58,5.36-1.84,1.81-.22,3.57-.23,5.28-.19,1.71.04,3.37.18,5.01.26,1.66.08,3.25.16,5.2-.08-1.01,1.74-2.93,2.76-4.76,3.33Zm19.12-30.74c-2.07-.1-4.11-.42-6.11-.93-2-.51-3.95-1.25-5.81-2.24-1.82-1.02-3.69-2.28-4.87-4.17l5.99,1.09c1.93.37,3.84.8,5.75,1.29,1.91.5,3.8,1.08,5.68,1.76,1.89.71,3.75,1.47,5.65,2.55-2.11.65-4.22.72-6.29.65Z"/>
        <path class="cls-1" d="m214.88,626.47c-.63-1.01-1.05-1.68-1.27-2.38-1.55-4.79-.02-8.4,1.09-11.05.96-2.28,1.4-3.44.75-4.92-1.68-3.82-.33-8.16.66-11.32.22-.7.49-1.58.64-2.21-.87-1.37-2.21-3.92-3.01-7.48-1.32,3.38-2.63,6.59-3.45,8.3-.05.1-.11.24-.16.35.68,1.39,1.51,2.92,2.12,3.5l-1.7-.42s-.44,2.79.79,4.52c1.23,1.73-1.47,2.06-.79,3.78.68,1.72,2.54,2.2,3.64,2.22,0,0-1.61.9-2.76.49,0,0-1.2,2.34-.08,3.85.96,1.28-.35.72-.79,3.45.91,5.09,1.93,8.5,1.95,8.56l.12.57c.03.28.54,5.02.31,10.49,1.15.41,3.08,1.19,4.29,2.26,0,0-1.54-.31-3.59.14,0,0-.57.58-1.02,1.76-.13,1.08-.29,2.16-.51,3.2,0,.21,0,.41,0,.64.27,3.88,3.14,5.14,3.14,5.14,0,0-2.2.87-3.66-.36,0,0-3.02,6.49.47,7.97,0,0-1.84.53-2.67-.48,0,0-.75.88-1.34,2.16-.17.54-.35,1.06-.52,1.59-.08.39-.14.79-.14,1.21.02,2.61,1.11,4.18-1.01,4.84-.63.19-1.04.68-1.29,1.29-.06.19-.13.39-.19.58-.28,1.44.24,3.34,1.56,4.53,0,0-1.56.39-2.52-.9-.06-.08-.12-.12-.17-.15-.58,1.77-1.17,3.46-1.79,5.09-.22,1.23-.41,2.46-.53,3.39-.42,3.16-4.07,2.81-2.48,7.63,0,0-1.9.03-2.07-2.15,0,0,0-.11.03-.31-1.52,1.33-3.1,1.93-4.56,2.14.1.13.19.27.3.4,1.18,1.33,2.78,2.56,4.85,2.85-1.97.74-4.41.46-6.5-.51-1.03-.45-1.99-1.07-2.88-1.8-.02,1.53-.02,3.07.01,4.61.02,1.08.07,2.17.11,3.25,1.86,1.11,5.36,2.68,9.27.43,0,0-.53,3.52-6.54,6.51.68.1,1.37.14,2.09.04.57-.08,1.15-.22,1.81-.42l1.13-.36c.19-.1.32-.1.53-.24.77-.39,1.74-1.29,2.59-2.32,1.75-2.1,3.29-4.72,4.71-7.38.71-1.33,1.41-2.73,2.06-4.08.47-1.02,4.72-11.11,9.52-26.42,0-1.06.05-2.1.24-3.09.46-2.37.44-4.18.41-6.1-.04-3.17-.09-6.76,2.07-12.64,2.08-5.66-1.41-11.25-3.28-14.25Z"/>
        <path class="cls-1" d="m200.31,756.38c1.01-1.88,2.03-3.93,3-6.07-.35-1.25-.73-2.53.19-3.17.56-.39,1.23-1.01,1.88-1.64,2.9-7.22,5.01-14.73,4.73-19.77-.22-3.96-.75-8.84-1.32-14.01-.27-2.51-.55-4.68-.8-6.73-1.77.45-4.5,1.85-6.55,6.03-.07,3.67.21,6.62.48,9.29.52,5.19.97,9.67-1.73,15.94-3.99,9.27-9.74,10.35-12.33,10.37,0,.03,0,.07,0,.1.2,1.54.64,2.9,1.94,3.37,1.35.53,3.26.02,4.91-.64-1.39,1.12-2.92,2.36-5.19,2.38-1.13,0-2.31-.61-3.11-1.43-.8-.82-1.34-1.77-1.77-2.72-1.58-3.82-1.81-7.65-2.05-11.41-.05-.94.11-1.86.25-2.78.15-.95.21-1.75.29-2.58.15-1.67.19-3.4.21-5.13.03-3.47-.13-7-.32-10.55-.39-7.1-.97-14.28-1.13-21.57-.07-3.65-.06-7.33.26-11.07.16-1.87.37-3.75.74-5.65.34-1.89.96-3.91,1.35-5.42,1.71-6.58,2.42-13.61,2.81-20.63.36-7.04.36-14.13.14-21.23-.04-1.53-.09-3.05-.16-4.56-.03-.12-.06-.26-.09-.37-1.28-4.7-1.49-7.73-1.32-8.22s-1.95-6.97-1.74-9.11c.21-2.14-1.53-2.94-.68-4.3.85-1.36.76-2.13-.29-4.9-1.04-2.77-2.67,4.4-3.2,5.87s-.74,3.89.7,3.48c.69-.2,1.49-.3,2.19.32-.9.66-2.48,5.94-2.45,6.88.04.94-.06,2.75.74,4.14.8,1.39.2,2.56.19,4.13,1.62-.16,2.85.28,2.85.28,0,0-2.46,2.26-2.4,4.68.06,2.42.8,3.97,1,7.55.2,3.58-1.56,6.45-2.21,11.39-.77-2.49-.77-8.21-.23-10.23.54-2.02-.19-4.13-.95-7.17-.76-3.04-1.18-3.93-1.39-7.5-.1-1.7-1.04-3.23-2-4.38,1.08,8.93,1.85,19.19.75,32.52-.24,2.92-.59,6.4-.98,10.13,1.87-.57,3.71.07,3.71.07-1.91,1.22-3.39,3.48-4.3,5.52-.15,1.42-.3,2.85-.45,4.31,1.46.86,5.37.56,2.57,1.57-1.33.48-2.33,1.81-3.06,3.23-.16,1.58-.31,3.16-.46,4.74,1.01.5,2,1.62,2,1.62-1.02.57-1.83,1.91-2.43,3.2-.27,3.19-.5,6.28-.66,9.2.63,2.18,1.81,6.16,2.74,8.71,1.33,3.66-1.15,5.68,1.99,10.53,1.68,2.59-.99,2.77-1.76,4.95-.78,2.18-2.72,5.51,1,10.22,0,0-1.68,1.35-2.89.09,0,0-.63,5.91,3.44,8.47,0,0-.5,1.02-1.15,1.29,0,0,.05,3.98,1.78,5.99,1.74,2-.26,2.95-.21,4.35.05,1.4,1,5.34,3.62,6.55,2.61,1.21,1.27,2.66,2.84,4.06,1.58,1.39,4.96,4.07,11.11,1.83-3.01,3.91-8.84,3.31-12.26.25-2.7-2.41-3.47-1.96-4.85-3.5.92,1.79,1.8,3.14,2.47,3.96,1.77,2.14,6.16,4.32,10.19,4.11,2.8-.15,5.02-1.43,6.6-3.81.49-.75,1-1.58,1.52-2.45-.98-.94-1.09-2.43-1.09-2.43.89.37,1.87.06,2.77-.54Z"/>
        <path class="cls-1" d="m227.1,700.48c1.15-3.6-.31-3.02,1.32-7.99,1.63-4.98,7.2-10.89,7.2-10.89-5.96,1.97-8.62,5.57-8.62,5.57.06-4.41-2.72-6.37-1.67-11.66,1.06-5.3.3-12.91.3-12.91.8-4.98,5.39-11.63,5.39-11.63-3,1.42-5.21,3.82-5.21,3.82.44-2.33.35-8.04.35-8.04,2.13-7.59,6.48-13.4,8.95-16.25-1.02.5-1.98,1-2.83,1.5-5.89,3.46-9.19,13.96-9.3,14.28-.69,2.81-.67,4.8-.64,7.01.03,2.05.06,4.37-.53,7.37-.27,1.41-.1,3.43.07,5.58.25,3.01.53,6.41-.11,10.04-1.08,6.09-.19,9.16.94,13.04.44,1.52.9,3.09,1.27,4.95.85,4.24.18,6.53-.47,8.75-.48,1.65-.94,3.21-.89,6.16,0,.41.02.78.05,1.13.99-1.02,2.02-1.99,3.12-2.9.22-1.98.62-4.8,1.29-6.92Z"/>
        <path class="cls-1" d="m211.52,788.52c-1.84.36-3.56,1.32-4.98,2.65-.69.65-1.27,1.39-1.62,2.07-.37.69-.35,1.2-.32,1.23.01.03.02.06.14.18.11.11.38.27.71.41.14.06.37.15.66.24.26.09.53.19.79.26.2.06.39.1.59.16.9-2.84,4.35-5.77,9.21-7.56-1.81-.06-3.6.04-5.19.37Z"/>
        <path class="cls-1" d="m1.08,446.73l-.79-.41c-.2-.09-.44-.26-.66-.48-.88-.84-2.62-3.31-2.62-3.31-.25,1.54,0,3.15.84,4.64.21.37.47.72.82,1.1.32.32.67.6,1.01.8.69.44,1.44.65,2.16.85,1.44.43,2.82.87,4.23,1.23,1.4.38,2.79.72,4.11,1.29,0,0-2.31-1.9-3.58-2.61-1.28-.71-2.6-1.3-3.81-2.04-.6-.37-1.16-.78-1.72-1.08Z"/>
        <path class="cls-1" d="m233.82,619.37c2.29-.99,4.57-1.94,6.86-2.82,2.3-.87,4.73-1.28,6.9-2.32,2.2-1.02,4.35-2.04,6.64-3.51l-.05-.41c-2.66-.81-5.36-.58-7.9-.03-2.57.53-4.77,2.03-6.99,3.26-2.23,1.24-4.38,2.59-6.46,4.02-2.07,1.46-5.91,4.79-5.91,4.79,2.36-.92,4.61-2.02,6.92-2.97Z"/>
        <path class="cls-1" d="m-40.71,465.55c-.9.88-.54,3.16.01,4.88.28-1.64,1.51-1.85,3.98-3.62,2.97-2.12,8.3-2.72,12.07-7.88s10.25-11.29,10.25-11.29c1.23,2.37,6.91,4.68,6.91,4.68-4.09-3.67-4.25-7.88-4.25-7.88,7.55-8.38,12.63-9.06,12.63-9.06,2.02.16,11.88,1.6,11.88,1.6-4.49-4.09-9.34-4.85-9.34-4.85,4.8-2.93,7.09-6.74,8.18-9.44-2.35,1.7-5.54,3.68-9.86,5.81-10.48,5.16-29.11,24.6-33.37,30.1-2.63,3.39-4.69,4.37-6.35,5.15-1.02.48-1.76.83-2.76,1.81Z"/>
        <path class="cls-1" d="m58.63,375.8c.77-2.87.82-6.86-.63-8.02-1.45-1.15,2.66-4.69,4.03-8.25.12-.31.2-.58.3-.86-.46-.7-.67-1.57-.45-2.44l.53-2.14c-1.22.04-2.46-.38-2.46-.38,1.29-.23,2.52-1.45,3.07-2.08l.13-.53c-.55-.49-1.14-1.39-1.14-1.39.69-.32,1.36-1.05,1.97-1.99l2.03-8.23c-1.14-.05-2.96.82-.09-2.08.34-.34.6-.69.86-1.03l1.29-5.24c-.18-.87-.51-1.57-.86-1.99-.74-.87.8-2.09,2.17-3.3l4.49-18.23c-1.01-.34-1.69-1.12-1.69-1.12.87-.03,1.74-.94,2.43-1.89l.59-2.38c-1.83-.41-3.31-.97-4.39-1.48-.47,1.73-.85,3.28-1.08,4.5-1.12,5.85-4.54,23.67-6.27,29.62-.19.64-.49,1.65-.89,2.97-2.62,8.65-9.96,32.93-11.91,47.67,3.85-1.83,7.29-7.07,8-9.69Z"/>
        <path class="cls-1" d="m71,299.96c1.63-.02,3.58-.4,4.91-.7l3.93-15.93-2-2.17c.52.17,1.71-.3,2.72-.78l1.68-6.8c-2.42,1.26-4.51,2.71-4.9,4.55-.51,2.4-1.78,6.56-3.25,11.37-1.06,3.48-2.2,7.23-3.09,10.46Z"/>
        <path class="cls-1" d="m163.17,265.84c12.35-1.43,25.74.12,40.06,4.72,9.8,3.15,18.06,6.99,25.06,11.33l66.63,16.42.16-6.7-197.8-48.76-2.21,6.2,68.1,16.79Z"/>
        <path class="cls-1" d="m226.83,718.13c1.1,1.01,2.94,2.76,2.89,5.98.66-.84,2.02-2.78,2.14-4.49,0,0,1.38-2.83,4.4-4.06,0,0-3.47-1.14-5.96,1.2,0,0-1.6-.77-2.66-2.57-.67.67-1.31,1.36-1.92,2.09l.07.49c.05.39.21.59,1.05,1.37Z"/>
        <path class="cls-1" d="m29.02,407.71c2.27.63,4.17,3.19,4.17,3.19-.58-4.08-1.96-5.12-1.96-5.12,14.09-5.36,18.04,1.58,18.04,1.58-.17-2.83-1.92-5.66-1.92-5.66,1.63-.67,2.99-.87,2.99-.87,2.57,1.88,4.63,6.89,4.63,6.89,0-4.44-1.12-8.29-1.12-8.29,2.75-1.66,5.78-1.4,7.35-1.1.05-2.65.17-4.87.31-6.69-6.84.8-14.82,2.84-20.6,5.29-7.91,3.35-16.53,10.5-20.38,14.2-.61.58-1.06,1.16-1.41,1.7.61.42,1.3.95,2.07,1.57,2.99-3.97,7.82-6.67,7.82-6.67Z"/>
        <path class="cls-1" d="m-11.17,640.27s-1.83,2.02-2.31,3.88c0,0,4.05-2.94,6.24-2.9,0,0-2.86,2.99-3.03,5.01,0,0,2.05-1.35,4.73-.58,2.68.77,5.56,2.53,8.21,1.82,2.65-.72,4.09,1.46,8.73.34,0,0-2.36,2.48-5.11,2.43-2.75-.06-4.71-.76-8.9-.4-3.11.26-6.39.98-10.38.28,5.28,3.82,14.03,8.13,24.97,3.41,18.57-8.01,42.55-22.9,48.63-32.3,1.49-2.31,3.35-5.29,5.35-8.63-2.3,1.68-4.59,2.29-5.84,3.78-1.69,2.03.48,2.52-1.72,5.61-2.21,3.09-5.86,4.42-5.86,4.42-1.75-3.25-5.03-2.2-5.03-2.2,2.38.71,2.08,3.09,2.08,3.09-1.65,2.32-4.99,4.31-4.99,4.31-2.13-2.56-5.69-1.89-5.69-1.89,1.56.28,4.37,2.11,2.7,3.31-1.67,1.2-1.19,1.79-3.52.96-2.33-.83-5.8-.41-5.8-.41,2.71.55,3.13,4.02,3.13,4.02-.96-1.59-7.38-2.21-8.2-.29-.82,1.92-2.19,4.2-7.76,4.71-3.45.31-5.33-.19-6.27-.63-2.1.35-4.15.44-6.21.46-1.36,0-2.71-.07-4.07-.12-1.35-.1-2.68-.49-4-.82-2.62-.73-5.22-1.68-7.55-3.15-1.16-.74-2.27-1.59-3.15-2.66-.87-1.07-1.48-2.36-1.6-3.67.95,2.51,3.31,3.79,5.6,4.59,1.9.63,3.89,1,5.9,1.2-3.11-12.96,2.01-23.2,4.36-27.86.45-.88.88-1.82,1.3-2.76-.78-2.96-2.32-6.44-5.25-6.53-5.11-.16-3.62,4.98-3.62,4.98l3.14,2.59s-3.01-.89-4.5-.31c0,0,.48.72,1.07,1.67,0,0-1.37-.3-3.05,1.31,0,0,1.05,2.22,1.25,3.21,0,0-.96-1.45-2.59.55-1.63,2-3.15,6.26-2.31,8.03.84,1.78-.81,1.74-2.6,3.69-1.8,1.94-2.17,6.61-1.06,8.66,1.11,2.06,4.58,5.78,4.58,5.78Z"/>
        <path class="cls-1" d="m25.6,502.49c2.46-1.87,4.31-3.72,6.1-5.5,2.51-2.5,4.88-4.87,8.13-6.22,1.9-.79,4.35-2.65,6.44-4.43.03-2.4-4.56-1.08-8.73.81-4.79,2.17-9.9,8.37-9.9,8.37,1.34-7.27,6.17-11.5,6.17-11.5-.41-1.95.57-3.53.57-3.53,3.07,2.16,4.8-.77,5.77-4.12-.28-.81-.54-1.62-.78-2.44-.75-2.37-.76-4.9-1.21-7.38-.45-2.47-.95-4.94-1.48-7.4-.5-2.48-1.39-7.55-1.39-7.55,1.29,2.23,2.33,4.57,3.38,6.92,1.01,2.36,1.92,4.76,2.73,7.2.81,2.44,1.92,4.85,2.08,7.47,0,.05,0,.09,0,.14,1.65,1.3,2.87-1.26,3.7-4.31-1.17-8.19-3.77-17.81-9.15-27.34-.2-.36-.42-.71-.63-1.07-.56,3.72-2.26,7.41-2.26,7.41l-3.93-9.7c1,7.55-4.1,15.93-4.1,15.93-2.6-.09-10.74-2.86-10.74-2.86,1.58,3.98,9.86,7.66,13.53,9.8-6.24,1.73-13.06-3.34-17.51-1.19,1.6.45,3.19,1.04,4.75,1.87,1.82,1.02,3.72,2.58,4.69,4.96.18.6.42,1.2.48,1.81.04.61.13,1.24.08,1.84l-.27,1.74c-.13.5-.26.97-.41,1.45-.64,1.89-1.36,3.76-2.34,5.46-.92,1.73-2.03,3.29-2.97,4.85-.98,1.54-1.68,3.14-1.82,5.1-.36-.89-.57-1.89-.55-2.92.01-1.02.25-2.02.49-2.99.57-1.9,1.27-3.66,1.88-5.38.57-1.74,1.14-3.42,1.5-5.17l.28-1.3.1-1.06c.02-.34-.06-.65-.06-.98-.03-.32-.2-.6-.26-.91-.67-1.74-2.65-3.18-4.94-4.38-7.6-2.12-13.73,1.91-13.73,1.91,7.85,5.15,7.18,12.1,7.18,12.1-3.8-5.64-11.83-8.36-11.83-8.36,4.68,3.19,6.87,9.09,6.87,9.09.66,6.61-2.74,12.83-3.63,14.33.57,1.02,1.12,2.06,1.56,3.16,0,0-2.84-2.37-4.16-3.58-1.3-1.22-2.61-2.41-3.93-3.58-.34-.3-.7-.58-1.06-.85,1.52,2.14,2.78,4.11,2.78,4.11l-2.2,2.68c-9.52-9.15-19.02-14.48-24.52-17.1,23.38,18.49,32.78,33.07,36.28,40.03l1.18.09c4.06.33,11.21-6.19,15.94-10.5,2.11-1.93,4.11-3.75,5.86-5.07Z"/>
        <path class="cls-1" d="m-1.01,561.98c-.66,2.25-.71,6.66,1.14,8.85,1.85,2.18-1.58,4.83-.43,7.04,1.15,2.21,2.71,2.49,4.76,2.94,2.05.45-1.02,1.71,3.09,4.14,4.11,2.43,10.53,3.47,17.89,4.16-6.07,2.27-11.42-.19-13.69-.03-2.27.16-6.97-1.79-7.67-2.18-.69-.39-.75-3.73-.75-3.73-1.01.89-1.41,2.4-1.41,2.4-1.83-1.07-2.78-3.07-5.97-4.61-1.15-.56-1.85-1.02-2.38-1.53.14.45.25.9.42,1.35,1.52,4.08,8.65,8.63,18.19,11.58,8.91,2.76,22.56,3.34,31.48-1.94,1.21-.72,2.52-1.47,3.88-2.25,1.18-.68,2.43-1.4,3.69-2.14,3.82-3.15,5.17-5.83,5.17-5.83.44-1.23-1.09-3.16-1.09-3.16,1.65.03,2.42,2.52,3.18,1.96.75-.56,1.03-2.12,1.03-2.12,1.23.44,2.58-1.02,2.58-1.02.28-1.56-.83-3.89-.83-3.89,1.23.44,2.67,2.61,2.67,2.61,1.51-1.12,2.63-3.49,3.83-6.11,1.21-2.61,3.38-.18,4.26-2.63s.52-5.35-2.02-5.98c-1.08-.27-3.1.69-5.06,1.87-2.82,4.56-6.24,8.4-7.91,9.97-4.89,4.55-10.38,8.84-17.34,11.1-3.48,1.06-6.91,1.45-10.35,1.58-3.43.1-6.86-.1-10.26-.69-3.4-.61-15.05-5.02-14.97-13.25,1.35,1.08,3.24,2.19,5.28,3.2.28-7.27,8.04-14.76,12.11-18.2,2.15-5.36-1.6-6.33-2.85-6.4,0,0,1.83,1.07,1.42,3,0,0-5.41,4.3-6.99,7.2,0,0-1.94-1.94-4.46-1.86,0,0,2.5.75,2.62,2.73,0,0-3.78,3.63-4.48,8.97,0,0-2.06-5.35-1.37-8.84,0,0,1.77-5.74,3.8-8.33,0,0,2.42.59,3.13,2.08,0,0,.09-2.6-2.27-3.72,0,0,.16-1.6,2.82-2.87,2.66-1.27,4.48-3.25,5.21-4.92,0,0,2.65-.44,3.61.73,0,0-.28-2.31-2.04-3.22,0,0,3.92-4,6.01-7.55,1.56-2.65,4.55-7.34,7.08-10.42-.37.2-.73.4-1.08.59-1.91,1.02-6.37,6.2-9.95,10.36-4.33,5.03-8.81,10.24-12.42,12.94-2.66,1.99-5.41,5.32-7.69,8.49-1.15,2.95-2.26,6.28-2.63,7.56Z"/>
        <path class="cls-1" d="m208.58,447.98c-1.51.69-3.05,1.35-4.65,1.93-13.02,4.76-28.48,5.64-44.5,2.69,4.23,1.69,14.33,4.27,34.11,2.1,0,0-11.02,6-37.78,1.95,0,0,17.47,6.37,38.35.58,0,0-5.04,4.82-26.12,5.48,13.11.77,24.96-1.42,34.85-6.3,5.67-4.23,6.45-6.85,5.75-8.44Z"/>
        <path class="cls-1" d="m103.41,434.13c-1.5-1.07-3.02-2.1-4.86-2.96l-.22.19c.66,1.95,1.84,3.54,3.15,4.96,1.31,1.44,3.05,2.35,4.65,3.38,1.61,1.02,3.25,1.98,4.9,2.91,1.68.88,3.34,1.77,5.04,2.6,0,0-5.75-4.94-8.55-7.38-1.41-1.21-2.6-2.65-4.11-3.7Z"/>
        <path class="cls-1" d="m152.28,557.94c1.88-.32,3.74-.71,5.59-1.13,1.84-.47,3.66-.93,5.48-1.44,0,0-7.58.18-11.29.24-1.86.05-3.71-.22-5.53,0-1.83.21-3.65.46-5.59,1.06l-.03.29c1.79,1.01,3.73,1.4,5.65,1.57,1.94.19,3.84-.3,5.72-.6Z"/>
        <path class="cls-1" d="m74.17,520.1c-.74,3.48-1.3,7-1.69,10.55-.39,3.55-.62,7.14-.36,10.79,1.45-3.35,2.57-6.74,3.55-10.16.98-3.42,1.86-6.85,2.58-10.33.73-3.47,1.31-6.97,1.77-10.51.44-3.53.78-7.1.65-10.76-1.55,3.3-2.78,6.66-3.82,10.08-1.05,3.41-1.95,6.85-2.68,10.33Z"/>
        <path class="cls-1" d="m138.24,539.03c1.21-3.91,2.27-7.87,3.18-11.87.91-4,1.69-8.04,2.07-12.2-2.03,3.66-3.67,7.43-5.17,11.24-1.5,3.81-2.85,7.66-4.06,11.56-1.21,3.9-2.26,7.85-3.18,11.84-.91,4-1.69,8.04-2.07,12.23,2.03-3.63,3.67-7.39,5.16-11.21,1.49-3.82,2.86-7.68,4.06-11.59Z"/>
        <path class="cls-1" d="m108.79,497.17c2.37.82,4.74,1.59,7.12,2.32,2.37.74,4.76,1.42,7.16,2.1,2.4.69,4.79,1.36,7.34,1.98-1.93-1.55-4.18-2.79-6.49-3.86-2.32-1.06-4.72-1.96-7.16-2.71-2.44-.75-4.93-1.34-7.44-1.8-2.51-.46-5.04-.79-7.61-.79,2.36,1.07,4.72,1.95,7.09,2.77Z"/>
        <path class="cls-1" d="m113.08,370.87c0,.3.02.6.07.88-.29.09-.55.28-.69.61-.45,1.04-.11,2.39.94,2.93.77.4,1.6.08,1.86-.61.98.63,1.98,1.17,3.04,1.63-.36.88-.5,1.82-.46,2.73-.46.07-.83.45-.89.95-.1.87.16,1.69.78,2.32.35.36,1.07.56,1.47.13.02-.02.04-.04.06-.06.54.44,1.22.68,2.05.59-.1.73,0,1.46.18,2.14-.28-.1-.59-.15-.92-.12-1.09.07-1.55,1.48-.79,2.22.31.31.62.61.94.91.39.38.81.26,1.14-.04.15.58.72,1.07,1.42.74l.17-.08c.17-.08.29-.19.38-.3.19.23.39.46.57.71.18.25.35.52.51.78-.42.32-.71.88-.52,1.51.43,1.39,1.36,2.35,2.6,2.78.07.02.13.01.2.02.77,1.34,1.63,2.6,2.65,3.69-.32-.16-.62-.34-.96-.46-1.13-.42-1.97,1.42-1.07,2.17l.37.3c.03.13.04.26.13.37.68.88,1.49,1.49,2.49,1.86.03.01.05,0,.08,0,.08.06.15.12.23.19.82.68,2.05-.55,1.64-1.59-.09-.23-.23-.42-.34-.62,0-.02,0-.03,0-.04.2.13.37.3.58.43.91.55,1.94.76,2.94.6.31.24.65.46,1.06.61.05.02.1.04.14.06-.16.32-.15.7.17,1.04.13.14.27.28.4.42.45.47,1.05.39,1.45.08.69,1.79,2.77,2.68,4.48,3.02.42.08.87-.14,1.18-.49,3.3,2.16,6.49,4.61,9.63,6.66.74.48,1.51.66,2.24.61.01.02.01.04.03.07.28.42.63.65,1.1.82,1.1.4,1.77-1.05,1.09-1.73.29-.21.57-.44.83-.71.16.37.38.69.64.98-.93.63-1.55,1.7-1.07,3.02.47,1.3,1.79,1.29,2.64.54.11-.01.21,0,.32-.03-.65.89.1,2.41,1.2,1.77l.23-.13c1.15-.66.59-2.45-.47-2.24.15-.25.23-.55.22-.83,1.79.94,3.67,1.61,5.63,2.07-.35.59-.36,1.53.34,1.89.47.24.9.24,1.43.14.76-.14.99-.92.83-1.54.04,0,.08.01.12.02.66.09,1.31-.09,1.92-.42.67,1.04,1.69,1.76,2.91,1.67,1.42-.1,2.85-.21,4.27-.31-.08.65.37,1.36,1.18,1.15.23-.1.46-.11.69-.03.92.27,1.53-.67,1.33-1.35.5-.04.99-.07,1.49-.11,1.15-.08,2.27-.56,3.13-1.36,1.18.78,2.77.86,4.1.09l.78-.45c-.65.82.15,2.26,1.17,1.62.18-.12.37-.23.55-.35,1.07-.67.33-2.37-.72-1.95.64-.47,1.18-1.06,1.54-1.76.65.64,1.48,1.04,2.37,1.03,2.02-.02,4.09-.56,5.92-1.8,1.3-.88,2.18-2.19,2.49-3.64.73.32,1.53.4,2.31.09.57-.23,1.15-.46,1.72-.69,1.83-.73,3.18-2.2,3.56-4.17.14-.08.25-.19.38-.29.45.57,1.5.66,1.82-.23l.04-.12c.12-.32.07-.61-.06-.83.64.05,1.22-.12,1.77-.59.45-.39.42-.92.18-1.31.06-.01.12,0,.18-.02.11.14.25.27.47.34.11.07.22.14.33.2.32.29.65.29.93.15,1-.03,1.43-1.62.3-2.02-.12-.04-.23-.06-.34-.06-.15-.09-.3-.16-.52-.24-.11-.04-.21-.03-.31-.04.14-.56-.11-1.27-.86-1.38-.24-.04-.47,0-.7.01.85-1.09,2-1.88,3.13-2.66,1,.96,2.6,2.02,3.58.54.25.25.62.36,1.03.2,1.09.49,2.14-1.08,1.05-1.76-.61-.38-1.21-.44-1.87-.14,0,0-.01.01-.02.01-.18-.43-.52-.8-.95-1.09.28-.3.53-.62.74-.96-8.44-6.58-19.26-11.41-28.96-15.79-5.94-2.68-18.62-6.19-29.5-8.79-5.58-1.33-15.05-2.76-15.81-2.03-.53-1.14-6.99-1.33-8.74-1.11-1.8.03-3.28-.44-5.08-.52-1.72-.08-2.92-.34-4.65-.32-.98-.21-2.51-.07-3.54-.12-4.19-.19-11.75-.73-14.6,4.07-.06.09-.09.2-.14.3-.57-.61-1.81-.48-1.79.56,0,.43.02.85.02,1.28.01.67.54,1.04,1.06,1.08Zm101.62,30.91c-.1.04-.19,0-.29-.02-.1-.03-.2-.03-.31-.04-.25-.04-.38-.33-.51-.51-.11-.16-.05-.36.14-.41.21-.05.37-.02.52.05,0,0,0,0,0,0,0,0,0,0,0,0,.03.01.05.03.08.05.29.19.87.68.37.88Zm.43-11.86c.57.13,1.74.67,1.59,1.38-.06.29-.89.43-1.15.31.26-.17.84-.31.64-.41.02-.31-.22-.36-.35-.47-.24-.2-.7-.18-.64-.4-.69-.33-.99-.61-.09-.41Zm-3.55.15c.26-.05.52-.07.78-.05.04-.04.9-.09,1.1-.09.04,0,.07.01.11.02-.16.09-.29.3-.15.48.34.45.78.79,1.3.99.36.14.71.32,1.07.5-.07.13-.2.23-.38.21-.28-.03-.83-.19-.84-.18-.07.02-.56-.27-.57-.27-.09.09-2.01-.61-2.28-.78-.05-.04-.18-.18-.21-.19-.27-.12-.21-.58.07-.64Zm-1.2-4.6c.07.02.15.04.24.06.11,0,.22,0,.33.07.11.07.2.2.1.25-.08.04-.35.02-.48,0-.2-.04-.27-.16-.34-.27-.04-.07.05-.14.16-.11Zm-36.06-3.04c-.12-.02-.18-.15-.24-.24-.05-.07-.02-.17.07-.19.1-.02.18-.01.24.02,0,0,0,0,0,0,0,0,0,0,0,0,.01,0,.02.01.04.02.14.09.41.32.17.41-.05.02-.09,0-.14,0-.05-.01-.09-.01-.14-.02Zm.22,6.44c-.02-.07.05-.15.12-.14.05,0,.1.02.15.02.08-.02.15-.03.22.03.07.06.11.19.03.25-.06.06-.24.07-.32.07-.13-.01-.16-.13-.19-.23Zm1.7,20.41c-.17.04-.35.12-.57.06-.17-.05-.31-.16-.44-.27-.01,0-.02,0-.03,0-.15-.05-.24-.14-.27-.22-.05-.06-.08-.13-.06-.2.07-.26.42-.15.69-.12.14.02.29,0,.47.1.15.08.26.21.34.32.1.15.07.29-.12.33Zm6.33.32s0,0,0,0c-.04.03-.12.02-.14.07,0,.05-1.1-.17-.77-.56.1-.34,1.26.23.91.49Zm11.93-1.94c-.75-.23-1.5-.4-2.25-.62-.08-.02-.16-.05-.24-.07-.1-.09-.18-.19-.25-.31-.02,0-.03-.02-.05-.02-.04.03-.09.03-.13.06-.54-.37-1.15-.56-1.78-.63-.2-.09-.4-.17-.61-.26-.53-.22-.96-.62-1.4-.97-.09-.07-.15-.17-.2-.27-.05-.03-.09-.07-.14-.1-.45-.26-.28-1.07.24-1.12.48-.05.93-.04,1.4.04.07-.07.15-.13.27-.15.29-.07.47-.24.78-.15.33.1.57.3.94.34.07,0,.13.04.19.06-.3.14-.56.49-.36.83.53.86,1.25,1.54,2.15,2,.61.32,1.22.69,1.81,1.07-.08.13-.22.22-.37.27Zm-.24-1.37c2.11-1-1.33-2.09-1.33-2.09-1.26-.45.03-.59,1.29-.14l.74.26c1.28.46,2.68,2.71-.7,1.96Zm10.7-9.32c.1.02.21.03.32.05.16-.04.32-.06.46.06.14.13.22.4.06.54-.14.12-.52.16-.69.14-.27-.02-.35-.28-.41-.5-.04-.14.11-.33.26-.3Zm-1.01-6.02c.16.04.36.11.5.21.23.05.25.42,0,.48-.06.03-.12.04-.19.02,0,0,0,0-.01,0,0,0,0,0,0,0-.26,0-.48-.1-.62-.36-.11-.2.11-.4.31-.34Zm-1.85,19.89c.1.03.21.05.32.08.15,0,.3,0,.44.1.15.1.27.27.13.34-.11.05-.47.03-.64,0-.26-.05-.37-.22-.46-.36-.06-.09.06-.18.21-.15Zm-2.28-7.25c.1-.34,1.26.23.91.49,0,0,0,0,0,0-.04.03-.12.02-.14.07,0,.05-1.1-.17-.77-.56Zm-1.04,8.49c.16.04.36.11.5.21.23.05.25.42,0,.48-.06.03-.12.04-.19.02,0,0,0,0-.01,0,0,0,0,0,0,0-.26,0-.48-.1-.62-.36-.11-.2.11-.4.31-.34Zm-1.06-32.76c.1-.02.18-.01.24.02,0,0,0,0,0,0,0,0,0,0,0,0,.01,0,.02.01.04.02.13.09.41.32.17.41-.05.02-.09,0-.14,0-.05-.01-.1-.01-.14-.02-.12-.02-.18-.15-.24-.24-.05-.07-.02-.17.07-.19Zm-4.12-1.79s.1.02.15.02c.08-.02.15-.03.22.03.07.06.11.19.03.25-.06.06-.24.07-.32.07-.13-.01-.16-.13-.19-.23-.02-.07.05-.15.12-.14Zm-5.46,7.58c.15-.06.32-.11.55-.09l.43.03c.21.02.38.08.52.16.18-.02.38-.02.61.08,1.22.47,2.43.94,3.65,1.41.33.13.53.32.64.52.04,0,.08.03.12.04.16.03.33.09.51.21.08.06.17.13.26.2.39.24.75.5,1.09.8.39.35.36.69.14.91.02.26-.07.5-.34.69-.45.3-1.18.18-1.94-.06-.49.15-1.04.12-1.61-.12-.23-.1-.39-.24-.5-.38.57.14,1.07.17,1.61.07.52-.09.58-.61.35-.98-.92-1.48-4.54-3.24-6.56-2.97.04-.23.19-.44.47-.52Zm-2.38-8.45c.1.03.21.05.32.08.15,0,.3,0,.44.1.15.1.27.27.13.34-.11.05-.47.03-.64,0-.26-.05-.37-.22-.46-.36-.06-.09.06-.18.21-.15Zm-4.82,8.78c.38-.11.77-.25,1.17-.42.41.06.83.18,1.22.21.87.08,1.68-.02,2.43-.33.22.1.44.18.7.21.11.01.19.06.28.09-.45.21-.83.72-.52,1.22.77,1.25,1.83,2.25,3.14,2.93.9.46,1.78,1.01,2.65,1.57-.2.32-.57.56-1.04.45-.72-.16-1.4-.41-2.06-.7-.03,0-.06,0-.09,0-.18.05-.38.02-.57-.1-.34-.14-.61-.41-.78-.73-.03,0-.05-.03-.07-.04-.26.22-.64.3-1.05.04-.86-.55-1.7-.88-2.64-1.26-.78-.32-1.4-.9-2.05-1.42-.13-.11-.22-.25-.29-.4-.07-.04-.13-.1-.21-.14-.43-.24-.44-.81-.21-1.2Zm-2.21,5.92c.1.02.21.03.32.05.16-.04.32-.06.46.06.14.13.22.4.06.54-.14.12-.52.16-.69.14-.27-.02-.35-.28-.41-.5-.04-.14.11-.33.26-.3Zm-1.98-18.55c.36.08.59.23.91.41,1.06.59.06,1.14-.96.82.25-.2.56-.02.52-.42-.04-.4-2.05-.86-2.05-.86.21-.21.83-.12,1.57.05Zm-4.77-.36c.31-.02,1-.02,1.08-.03.18-.03.9.1,1.14.12.05,0,.09.02.13.03-.18.07-.3.24-.12.41.45.44,1.01.8,1.66,1.04.44.17.88.37,1.32.57-.06.11-.21.19-.42.14-.33-.06-1.01-.26-1.02-.26-.08.01-.57-.19-.68-.3-.01,0-.02-.01-.04-.01-.1.07-.26.1-.47,0-.43-.2-2.45-1.06-2.5-1.12-.04-.02-.07-.04-.1-.05-.33-.14-.32-.54.01-.56Zm-7.66,39.86c-.14.12-.52.16-.69.14-.27-.02-.35-.28-.41-.5-.04-.14.11-.33.26-.3.1.02.21.03.32.05.16-.04.32-.06.46.06.14.13.22.4.06.54Zm-1.2-38.9c.1.02.21.03.32.05.16-.04.32-.06.46.06.14.13.22.4.06.54-.14.12-.52.16-.69.14-.27-.02-.35-.28-.41-.5-.04-.14.11-.33.26-.3Zm-.65,12.23c.1-.02.18-.01.24.02,0,0,0,0,0,0,0,0,0,0,0,0,.01,0,.02.01.04.02.13.09.41.32.17.41-.05.02-.09,0-.14,0-.05-.01-.1-.01-.14-.02-.12-.02-.18-.15-.24-.24-.05-.07-.02-.17.07-.19Zm-1.76,14.07c.23.06,4.84,2.04,6.57,1.37-.09-.21-.73-1.15-.79-1.39-.03-.11.06-1.06.06-1.15-1.42-1.06-1.17-1.28-2.82-2.28.62.01,1.13.18,2.43.6,1.13.36,2.17.88,3.17,1.51.16-.03,1.66.85,1.69,1.61.03.65,1.02,1.14-.58,1.92-.35.17-1.27.37-1.32.38-1.18.38-2.68.29-3.89.17-.2-.02-.38-.11-.52-.23-.03,0-.06,0-.08,0-.38-.02-.63-.2-.77-.45-.36-.12-.71-.25-1.05-.41-.28.02-.57-.07-.79-.39h.02s0,.01,0,0c-.08-.05-.17-.08-.25-.13-1.07-.63-2.14-1.42-1.08-1.14Zm-2.18-30.7c.1-.02.18-.01.24.02,0,0,0,0,0,0,0,0,0,0,0,0,.01,0,.02.01.04.02.13.09.41.32.17.41-.05.02-.09,0-.14,0-.05-.01-.1-.01-.14-.02-.12-.02-.18-.15-.24-.24-.05-.07-.02-.17.07-.19Zm-.17,14.84s.1.02.15.02c.08-.02.15-.03.22.03.07.06.11.19.03.25-.06.06-.24.07-.32.07-.13-.01-.16-.13-.19-.23-.02-.07.05-.15.12-.14Zm-3.94-16.63s.1.02.15.02c.08-.02.15-.03.22.03.07.06.11.19.03.25-.06.06-.24.07-.32.07-.13-.01-.16-.13-.19-.23-.02-.07.05-.15.12-.14Zm-1.51,18.97c.1.03.21.05.32.08.15,0,.3,0,.44.1.15.1.27.27.13.34-.11.05-.47.03-.64,0-.26-.05-.37-.22-.46-.36-.06-.09.06-.18.21-.15Zm-1.25,10.69c.8-.08,1.56-.06,2.35.07.12-.11.25-.21.45-.26.48-.11.78-.41,1.31-.25.55.17.96.49,1.57.56.12.01.22.06.32.1-.51.24-.94.82-.59,1.39.88,1.43,2.08,2.57,3.58,3.34,1.03.53,2.03,1.15,3.03,1.8-.23.37-.66.64-1.19.52-.82-.18-1.59-.46-2.35-.79-.03,0-.07,0-.1,0-.21.05-.43.02-.65-.11-.38-.16-.69-.46-.89-.83-.03,0-.05-.03-.09-.04-.3.26-.73.34-1.2.05-.98-.62-1.94-1-3.01-1.44-.89-.36-1.6-1.03-2.34-1.62-.15-.12-.26-.28-.33-.46-.08-.05-.15-.12-.24-.16-.76-.43-.46-1.78.4-1.87Zm-11.32-7.11s-.05.06-.1.07c-.05.02-.11.03-.2,0,0,0-.01,0-.02,0-.1,0-.2,0-.29-.04-.12-.05-.17-.15-.23-.23-.06-.09-.03-.16.07-.19.07-.02.16-.04.26-.02.11.02.17.08.24.12.13.08.32.16.26.3Zm1.28,3.73c-.14.12-.52.16-.69.14-.27-.02-.35-.28-.41-.5-.04-.14.11-.33.26-.3.1.02.21.03.32.05.16-.04.32-.06.46.06.14.13.22.4.06.54Zm8.23-26.24c.89.53.7,1.05-.37,1.04l-.38-.14c1.53-.32.4-.69-.36-.96.28-.18,1.12.06,1.12.06Zm-3.71-.16c.22-.04.42-.04.64-.02.03-.03.07-.06.12-.08.13-.04.62.03.79.04.03,0,.06.01.09.02-.13.07-.24.24-.14.39.26.38.61.67,1.03.85.29.13.57.28.86.44-.06.1-.76.06-.97-.02,0,0-.02,0-.03,0-.06.02-.12.01-.18-.02-.11-.04-1.15-.43-1.45-.53-.25-.08-.45-.25-.67-.4-.04-.03-.07-.07-.1-.12-.02-.01-.04-.03-.07-.04-.21-.1-.16-.48.08-.52Zm2.8,13.97c.55.32.88.63.9.98,1.31,1.14-1.4,1.6-3.1.52,1.94.28,2.11-.51,1.26-1-1.82-1.06-2.65-1.14-3.9-1.39,1.44-.6,3.24-.02,4.83.89Zm-9.32-1.37c.48-.05,1.56-.08,1.67-.11.29-.07,1.35.15,1.72.19.07,0,.13.04.19.06-.3.14-.56.49-.36.83.53.86,1.25,1.54,2.15,2,.61.32,1.22.69,1.81,1.07-.14.22-.39.38-.71.31-.49-.11-.95-.28-1.41-.48-.02,0-2.92-1.16-3.56-1.42-.53-.22-.96-.62-1.4-.97-.09-.07-.15-.17-.2-.27-.05-.03-.42-1.16.1-1.22Zm-8.05,18.99s-.05.06-.1.07c-.05.02-.11.03-.2,0,0,0-.01,0-.02,0-.1,0-.2,0-.29-.04-.12-.05-.17-.15-.23-.23-.06-.09-.03-.16.07-.19.07-.02.16-.04.26-.02.11.02.17.08.24.12.13.08.32.16.26.3Zm-1.18-29.33c.07-.02.16-.04.26-.02.11.02.17.08.24.12.13.08.32.16.26.3-.02.04-.05.06-.1.07-.05.02-.11.03-.2,0,0,0-.01,0-.02,0-.1,0-.2,0-.29-.04-.12-.05-.17-.15-.23-.23-.06-.09-.03-.16.07-.19Zm-1.47,19.95c0,.29-.56,0-.53-.03.01-.03-.03-.05-.04-.08,0,0,0,0,0,0-.06-.24.65-.08.57.11Zm-.9-21.77c0,.29-.56,0-.53-.03.01-.03-.03-.05-.04-.08,0,0,0,0,0,0-.06-.24.65-.08.57.11Zm-2.27,13.88c.1-.34,1.26.23.91.49,0,0,0,0,0,0-.04.03-.12.02-.14.07,0,.05-1.1-.17-.77-.56Zm-3.81-12.08c1.08.85.2,1.75-.86,1.23,1.19-.28.33-1.22-1.54-1.55.39-.52,1.56-.34,2.4.32Zm-5.42-.33c.33-.06.63-.08.96-.05.05-.05.1-.1.17-.12.19-.06.93.02,1.18.03.05,0,.09.02.13.03-.2.11-.36.37-.19.59.41.55.94.98,1.58,1.24.44.18.87.4,1.3.63-.08.16-1.13.12-1.46.01-.01,0-.03,0-.04,0-.08.03-.17.02-.27-.02-.16-.05-1.75-.6-2.2-.74-.38-.12-.69-.36-1.02-.58-.07-.04-.11-.11-.15-.18-.04-.02-.07-.04-.1-.06-.32-.15-.25-.71.1-.78Z"/>
        <path class="cls-1" d="m32.19,505.16c-.86.76-1.77,1.53-2.8,2.31-.11.08-.24.19-.35.28-.26,2.26-.75,6.08-1.45,10.1.41-.29.79-.54,1.17-.74,2.68-1.43,5.88-3.36,8.11-4.73-.26-1.01-.99-2.24-3.03-2.66l4.19-3.49-5.84-1.08Z"/>
        <path class="cls-1" d="m50.68,593.61c-.44.25-.82.48-1.25.72-.43,1.76-.79,4.39-.76,5.14.01,2.01,1.25,3.73,1.89,5.6.4,1.19.79,2.4,1.18,3.6,1.29-1.8,2.52-3.64,3.71-5.52-.02-1.77.1-3.59-.7-5.18-.36-.8-2.35-3.39-3.65-4.61-.14.08-.29.17-.43.25Z"/>
        <path class="cls-1" d="m197.96,547.94c1.47-5.16,2.82-10.35,3.86-15.62,1.06-5.26,1.94-10.57,2.28-15.98-4,10.04-7.09,20.22-10.14,30.43-1.47,5.12-2.94,10.23-4.32,15.38-1.4,5.14-2.76,10.3-3.94,15.58,2.79-4.64,5.03-9.56,7.03-14.55,2.03-4.99,3.68-10.1,5.23-15.24Z"/>
        <path class="cls-1" d="m79.59,310.49c4.01-7.66,9.16-28.05,9.16-28.05.41,1.44,3.97,4.92,3.97,4.92-1.5-2.01-2.78-9.29-2.78-9.29.49-4.99,3.81-14.32,5.71-16.05,1.9-1.72,4.68-.18,8.44,1.16,3.77,1.34,5.43,3.41,8.52,2.48,3.1-.93,7.6-.62,7.6-.62-.41,1.15.72,2.65.72,2.65.68-.87,1.19-1.79,1.19-1.79,2.13.76,5.14,1.09,5.14,1.09-.35.98-.34,3.02-.34,3.02,1.05-2.95,4.83-2.16,8.33-1.64,2.78.4,5.07,1.89,8.21,2.68,1.9-.82,3.83-1.56,5.79-2.2l-56-13.81-13.67,55.44Z"/>
        <path class="cls-1" d="m260.71,408.46c-.15,1.34-.31,2.97-.42,4.69,2.22-.83,3.93-2,5.18-3.52l-4.77-1.18Z"/>
        <path class="cls-1" d="m240.92,291.45c1.58,1.47,3.06,2.97,4.44,4.5l6.05,2.16c-.3,1.37.12,2.26.12,2.26.8-1.74,3.03-2.8,3.03-2.8-.51.92-.97,4.27-.97,4.27.63-1.25,2.17-1.44,2.17-1.44,0,0,2.47.32,8.63,2.7,6.16,2.38,11.15,6,15.12,5.2,3.97-.8,5.81.78,5.66,2.75-.15,1.98-2.49,3.36-2.49,3.36,3.18.39,5.67,2.2,5.67,2.2-1.7-.42-4.9.29-4.9.29,2,1.63.4,4.57-1.84,6.72-2.24,2.15-.5,5.54.98,8.65,1.48,3.11-1.56,9.04-1.56,9.04-2.07-.92-3.24-.23-3.24-.23,2.5,1.26,3.88,3.6,3.88,3.6-.46.76-1.97,2.43-1.97,2.43-.1,7.53-3.91,8.39-3.78,10.09.13,1.71,2.35,3.24.62,4.47-1.73,1.23-4.15,3.87-2.61,6.82,1.53,2.94-1.72,11.56-1.72,11.56-2.12-1.31-5.32-.6-5.32-.6,3.17.94,3.66,3.7,3.66,3.7-3.43-1.77-5.83.32-5.83.32,1.64.58,5.61,2.37,5.42,6.54-.19,4.17-3.98,6.52-4.11,9.98-.09,2.54,2.03,2.78,4.14,1.83l23.97-97.25-53.25-13.13Z"/>
        <path class="cls-1" d="m13.83,575.63c1.35.54,2.61.99,3.69,1.32.87-2.16,1.87-4.21,3.08-6.3,1.19-2.06,1.28-4.51,1.4-7.91.02-.67.05-1.39.09-2.14-4.44,4.22-9.63,10.53-8.26,15.04Z"/>
        <path class="cls-1" d="m185.5,481.9c7.39-1.21,10.35-9.32,11.5-15.1-6.51.8-21.14,2.35-29.88,1.45-9.9-1.02-18.23-.04-21.06,1.76.58,1.24,1.2,2.31,1.75,3.16.59.14,1.18.26,1.77.4,2.72.64,5.42,1.31,8.13,1.99.74-1.56,1.9-2.82,3.43-3.65,3.35-1.84,8.36-1.76,14.9.24,8.36,2.55,9.48,7.29,9.46,9.74Z"/>
        <path class="cls-1" d="m166.94,474.78c-.81.81-1.55,1.79-1.72,2.75,1.48.39,2.95.77,4.43,1.16,3.01.79,6,1.68,9,2.56.37-.78.75-1.86.67-2.91-1.01-.79-2.43-1.55-4.49-2.18-3.45-1.05-6-1.4-7.88-1.38Z"/>
        <path class="cls-1" d="m143.67,542.6c2.1,1.69,5.18,3.23,5.18,3.23-5.62-.37-8.1.44-3.43,2.65,4.67,2.21,10.46,3.75,16,3.76,11.34.02,4.15-3.06,1.83-3.32-2.32-.26-3.9-2.46-3.9-2.46,4.54-.81,11.6.28,11.6.28,0,0-1.73-2.15-8.16-3.95-6.43-1.8-19.13-.19-19.13-.19Z"/>
        <path class="cls-1" d="m99.59,406.89c8.43,16.09,25.52,29.42,48.97,36.62,19.15,5.88,38.06,6.07,53.23.53,9.5-3.47,17.24-9.04,23-16.41.66-2.03.7-3.54.59-4.48-17,13.85-41.7,19.01-67.65,12.67,13.02,9.94,36.15,8.12,36.15,8.12-17.56,6.57-50.46-2.1-67.6-13-10.97-6.98-17.34-14.72-21.56-21.05-6.24-9.36-6.07-17.32-5.17-20-.42-1.01-.81-2.02-1.18-3.05-4.94,6.2-.16,17.2,1.23,20.05Z"/>
        <path class="cls-1" d="m146.03,509.64c1.62-1.82,2.74-3.89,3.73-5.98.96-2.1,1.71-4.27,2.29-6.48.59-2.21,1.01-4.46,1.25-6.74.21-2.29.31-4.62-.05-7.03-1.37,2.01-2.32,4.1-3.19,6.22-.84,2.12-1.54,4.27-2.12,6.44-.59,2.18-1.04,4.38-1.39,6.62-.32,2.25-.57,4.52-.51,6.95Z"/>
        <path class="cls-1" d="m176.94,532.12c1.68.88,3.34,1.77,5.04,2.6,0,0-5.75-4.94-8.55-7.38-1.41-1.21-2.6-2.65-4.11-3.7-1.5-1.07-3.02-2.1-4.86-2.96l-.22.19c.65,1.95,1.84,3.54,3.15,4.96,1.31,1.44,3.05,2.35,4.65,3.38,1.61,1.02,3.25,1.98,4.9,2.91Z"/>
        <path class="cls-1" d="m153.31,430.29c39.69,12.19,77.43-4,87.77-37.68,7.42-24.16,11.16-67.06-44.93-87.03-1.34-.48-2.72-.94-4.13-1.39-22.5-7.19-41.83-6.7-57.45,1.47-19.25,10.06-28.62,29.52-33.09,44.07-10.34,33.67,11.93,68.31,51.83,80.56Zm-45.93-85.69s-4.68,19.36.66,28.46c0,0,1.02-54.15,36.92-64.06,0,0-8.98-.43-12.63.49,0,0,12.83-10.38,46.19-4.59,0,0-3.85,3.06,1.3,4.89,0,0,50.48,7.46,58.44,41.84,0,0-9.8-16.77-19.29-16.55-9.49.22-10.61,18.91-5.11,32.22,3.52,8.52,21.85,32.68,25.09-9.06,1.57,8.03,1.38,25.67-5.4,38.48s-14.88,26.25-40.71,31.17c-25.83,4.92-56-11.36-69.12-23.5,0,0,5.01,9.25,17.64,16.52,0,0-16.73-3.49-32.61-26.55-15.14-21.99-1.38-49.75-1.38-49.75Z"/>
        <path class="cls-1" d="m129.86,474.74c-5.1-.71-12.34-4.21-17.86-5.8,0,0,.01,2.03,3.54,4.58,3.52,2.55,4.47,7.13,4.47,7.13-1.45-1.62-6.06-4.74-6.06-4.74.07,1.87,1.56,4.43,5.82,11.11,4.26,6.68,11.5,10.18,11.5,10.18,0,0,.59-2.19-3-6.6-3.59-4.42-5.4-7.64-5.4-7.64,0,0,8.92,4.47,12.17,9.87,3.24,5.4-1.39,9.1-1.39,9.1,1.64.58,6.61,2.17,6.61,2.17,1.67-9.37,8.19-24.57,8.19-24.57l-3.11-1.11c-2.78-.99-10.38-2.96-15.48-3.67Z"/>
        <path class="cls-1" d="m88.49,549.72c-1.83.21-3.65.46-5.59,1.06l-.03.29c1.79,1.01,3.73,1.4,5.65,1.57,1.94.19,3.84-.3,5.72-.6,1.88-.32,3.74-.71,5.59-1.13,1.84-.47,3.66-.93,5.48-1.44,0,0-7.58.18-11.29.24-1.86.05-3.71-.22-5.53,0Z"/>
        <path class="cls-1" d="m111.9,546.38s-7.34-1.9-10.93-2.85c-1.8-.46-3.51-1.23-5.32-1.5-1.82-.29-3.63-.56-5.67-.51l-.11.27c1.45,1.46,3.21,2.36,5.01,3.06,1.81.72,3.78.76,5.67.98,1.9.2,3.79.34,5.68.44,1.9.05,3.78.11,5.67.11Z"/>
        <path class="cls-1" d="m129.62,540.7c1.54-5.36,2.81-8.41,5.67-16.43,2.86-8.02,4.16-12.72,3.04-14.23-1.12-1.51-7.87-2.25-11.74-3.81-3.87-1.56-12.43-4.98-19.16-6.82-6.72-1.84-17.6-4.97-24.84-5.89.68,1.72,3.57,2.93,7.44,4.49,3.87,1.56,3.22,3.91.57,4.63-2.65.72-4.24,3.1-4.24,3.1,0,0,2.55,1.65,4.99.49s6.38-.31,6.38-.31c-1.86,2.11-4.16,4.42-4.16,4.42,7.43-.67,9.41-5.69,9.41-5.69,2.01,1.09,1.36,3.44,5.72,7.76s8.59,4.9,8.59,4.9c-4.99-6.2-2.79-8.74,5.18-3.14,7.97,5.6,9.69,10.09,6.64,8.82s-6.4-1.72-5.17,0c1.23,1.73,2.3,5.98,2.17,9.44-.13,3.46,3.52,8.26,3.52,8.26Z"/>
        <path class="cls-1" d="m121.42,530.58c-2.48-4.94-6.34-10.05-10.99-13.69-9.52-7.45-5.49-.11-3.72,1.63,1.78,1.74,1.66,4.65,1.66,4.65-4.35-2.29-9.57-7.84-9.57-7.84,0,0,.05,2.97,4.28,8.72,4.23,5.75,15.96,12.69,15.96,12.69-.66-2.82-2.24-6.15-2.24-6.15,4.48,3.99,7.1,4.93,4.62-.02Z"/>
        <path class="cls-1" d="m176.61,575.55c-1.59-1.5-3.18-2.36-4.8-3.18-1.6-.85-3.48-.94-5.23-1.49-3.48-1.11-10.73-3.26-10.73-3.26,1.44,1.24,2.99,2.32,4.55,3.41,1.58,1.06,3.21,2.03,4.9,2.93,1.68.9,3.31,2.07,5.24,2.38,1.91.32,3.94.38,6-.38l.08-.41Z"/>
        <path class="cls-1" d="m24.91,751.05c-.31-.67-.61-1.34-.9-2.01-1.54-3.47-3.13-7.01-7.09-11.42-7.28-5.51-12.77-6.2-12.77-6.2-.36,1.53-1.36,4.86-1.36,4.86-8.96-6.53-14.96-8.7-18.5-9.35,3.96,1.94,7.74,4.33,11.28,7.19,13.64,10.99,24.32,26.21,27.04,37.1.41-.69.82-1.4,1.21-2.14.12-.3,4.26-11.15,1.08-18.03Z"/>
        <path class="cls-1" d="m224.66,633.36c1.01-1.24,2.13-2.4,3.33-3.4-.61-4.23-4.27-7.89-4.27-7.89,1.39-3.1,5.18-7.97,5.18-7.97-3.68,1.41-5.89,4.33-5.89,4.33-.04-2.12.7-3.37,1.87-7.68,1.17-4.31-2.19-5-1.5-9.27.39-2.44,0-4.65-.42-6.12-.18,1.03-.5,2.11-.87,3.31-.73,2.35-1.64,5.27-.9,6.95,1.76,4.01.39,7.26-.71,9.87-.97,2.3-1.74,4.11-.96,6.53.13.27.38.65.69,1.15,1.26,2.03,3.55,5.71,4.46,10.2Z"/>
        <path class="cls-1" d="m289.51,596.91c-1.42-1.27-2.16-2.68-2.21-4.17-.07-2.21,1.35-3.66,2.28-4.62.13-.13.29-.3.43-.45-1.04-2.16-.52-3.88-.1-4.74.21-.42.48-.77.76-1.09-2.92-1.14-5.24-1.22-7.78-1.28-2.1-.05-4.48-.1-7.34-.78-3.02-.71-5.79-.97-8.53-.99-6.18.68-8.93,4.1-6.57,8.39,1.89,3.43.56,8.59.56,8.59,2.2-.23,3.75,1.89,3.75,1.89-6.12,2.16-6.75,5.25-6.75,5.25,6.08-2.45,9.5-2.34,9.5-2.34,0,0,9.16,3.81,11.02,7.52-14.75-4.42-21.24-1.1-21.24-1.1,1.71-.13,4.81,1.25,4.81,1.25-.03,1.65-.1,9.09-.1,9.09-6.87.26-9.45,2.24-10.43,3.64,2.35-.37,4.62-.57,6.68-.52,8.48.2,22.54,1.61,31.5,8.09.49-2.03,1.17-4.39,1.96-6.05,1.14-2.38,1.34-5.11,1.11-6.2-.37-1.77.45-3.49,1.58-5.89.53-1.13,1.62-3.42,1.65-4.3-1.23-2.56-3.22-6.22-6.55-9.21Zm-17.06-8.13c-2.74-.61-4.21-1.13-6.99-1.04,0,0,2.7-2.58,4.26-2.89,1.56-.38,3.23.35,4.82.83,1.61.53,3.21,1.29,4.76,2.35.77.52,1.53,1.15,2.26,1.81.73.74,1.43,1.34,2.08,2.53,0,0-8.45-2.98-11.18-3.58Z"/>
        <path class="cls-1" d="m293.18,399.44c-5.83-2.31-9.99-8.62-12.56-13.77l-3.09,12.54c2.79,4.15,3.29,8.97,1.32,13.69-.5,1.2-1.16,2.38-1.94,3.5.13,3.05-1.04,9.98-12.48,15.22,1.6,3.2,3.18,7.13,3.71,12.45,3.65,4.54,6.99,9.27,9.22,12.75.38.59.74,1.21,1.11,1.83,3.13-8.46,4.3-15.25,5.17-20.39.56-3.29,1.04-6.12,1.87-8.47.71-2,1.57-4.21,2.47-6.5,1.86-4.76,3.79-9.68,4.76-13.77.85-3.57.67-7.06.44-9.07Zm-14.67,35.01c.23,3.77-3.73,6.6-3.59,4.07.15-2.53-2.53-6.07-2.53-6.07,1.99-.67,4.15-3.77,6.49-5.07-.64,2.54-.6,3.29-.38,7.06Z"/>
        <path class="cls-1" d="m179.96,792.06h-.02c.02-.29.55-8.17-8.1-14.25-7.23-5.07-18.21-4.81-27.43-4.02,4.18,1.44,9.8,4.08,13.25,8.64,0,0-14.66-5.08-22.06.17,0,0,4.95.1,11.53,2.58,0,0,3.43,2.37,4.07,5.48,10.12,2.32,21.13,6.26,26.78,13.34.65-2.32,1.01-5.06,1.36-7.75.18-1.4.39-2.81.62-4.2Z"/>
        <path class="cls-1" d="m193.95,709.97c-.92.14-1.87.16-2.81.09.73,2.43,1.19,5.29.69,11.05-.37,4.26-.02,6.66.43,9.71.24,1.64.5,3.49.7,5.86.5-.82,1-1.76,1.49-2.9,2.06-4.78,1.74-7.99,1.25-12.84-.3-3.01-.66-6.58-.48-11.21-.41.09-.83.18-1.26.24Z"/>
        <path class="cls-1" d="m176.99,810.86c-2.9-6.72-11.7-11.19-20.93-14.15,2.26,2.26,1.05,4.03-.31,5.09,8.87,2.62,17.35,6.7,21.37,13.02.42-1.48.15-3.01-.12-3.96Z"/>
        <path class="cls-1" d="m2.02,666.86c-1.52-.13-3.2.08-4.47,1.01,0,0,2.82.69,4.11,1.04,1.27.36,2.63.56,3.95,1.02,1.32.44,2.61,1.01,3.87,1.66,1.28.61,3.88,1.9,3.88,1.9-2.1-1.99-4.45-3.75-7.1-5.09-1.32-.65-2.68-1.43-4.24-1.54Z"/>
        <path class="cls-1" d="m33.69,608c-.47,1.79-1.04,3.53-1.73,5.17-.71,1.66-1.9,2.96-2.53,4.51-.68,1.57-1.41,3.1-2.13,5.17l.26.33c2.21-.31,4.02-1.64,5.38-3.25,1.41-1.63,1.78-3.8,2.2-5.75.44-1.97.62-3.96.62-5.91-.03-1.96-.17-3.88-.44-5.78h-.42c-.39,1.87-.69,3.73-1.21,5.52Z"/>
        <path class="cls-1" d="m128.66,339.86c.24-.09.36-.35.27-.59-.09-.24-.35-.36-.59-.27-.24.09-.36.35-.27.59s.35.36.59.27Z"/>
        <path class="cls-1" d="m163.74,353.4c-.24.09-.36.35-.27.59.09.24.35.36.59.27.24-.09.36-.35.27-.59-.09-.24-.35-.36-.59-.27Z"/>
        <path class="cls-1" d="m149.81,342.59c.3-.11.45-.45.34-.75-.11-.3-.45-.45-.75-.34-.3.11-.45.45-.34.75.11.3.45.45.75.34Z"/>
        <path class="cls-1" d="m148.43,328.78c.24-.09.36-.35.27-.59s-.35-.36-.59-.27c-.24.09-.36.35-.27.59.09.24.35.36.59.27Z"/>
        <path class="cls-1" d="m184.52,388c.17.03.53.06.64,0,.14-.07.02-.24-.13-.34-.15-.09-.3-.1-.44-.1-.11-.03-.22-.05-.32-.08-.15-.04-.27.05-.21.15.09.15.2.31.46.36Z"/>
        <path class="cls-1" d="m163.67,331.07c.85-2.37,3.96-6.71,7.64-5.4-2.57-.92-3.84-4.5-2.44-8.43-1.17,3.27-3.7,6.25-7.3,4.96,2.95,1.05,4.05,3.38,2.1,8.87Z"/>
        <path class="cls-1" d="m142.06,346.41c-.69-.25-1.04-1.22-.66-2.28-.31.88-1,1.69-1.97,1.34.8.28,1.09.91.57,2.39.23-.64,1.07-1.81,2.06-1.46Z"/>
        <path class="cls-1" d="m114.37,364.4c.99.08,1.74-.3,2.38-1.03.03-.03.03-.07.06-.1.08-.02.18-.01.27-.01.17.01,2.12-1.71.92-1.98-.1-.02-.18-.02-.28-.04,0,0-.32-.05-.48-.06-.03,0-1.58-.17-2.33-.39-.58-.18-1.09.1-1.33.63-.31.7-.37,1.39-.16,2.13.13.45.45.8.95.85Z"/>
        <path class="cls-1" d="m170.75,333.08c-.38.14-.58.57-.44.95.14.38.57.58.95.44.38-.14.58-.57.44-.95-.14-.38-.57-.58-.95-.44Z"/>
        <path class="cls-1" d="m137.13,323.66c3.61-2.63,5.85-5.7,5-6.85-.84-1.16-4.45.04-8.06,2.67s-5.85,5.7-5,6.86c.84,1.16,4.45-.04,8.06-2.67Z"/>
      </g>
    </g>
    <g>
      <path class="cls-2" d="m377.2,458.32c-1.32,0-1.14,1.99.14,1.99s1.14-1.99-.14-1.99Z"/>
      <path class="cls-2" d="m382.04,556.71c-1.32,0-1.14,1.99.14,1.99s1.14-1.99-.14-1.99Z"/>
      <path class="cls-2" d="m438.43,402.53c-2.57,0-2.23,3.89.28,3.89s2.23-3.89-.28-3.89Z"/>
      <path class="cls-2" d="m514.32,581.1c-1.07,0-.93,1.62.12,1.62s.93-1.62-.12-1.62Z"/>
      <path class="cls-2" d="m465.84,766.93c-2.77,0-2.41,4.19.3,4.19s2.41-4.19-.3-4.19Z"/>
      <path class="cls-2" d="m386.88,750.28c-1.32,0-1.14,1.99.14,1.99s1.14-1.99-.14-1.99Z"/>
      <path class="cls-2" d="m507.4,749.63c-.87,0-.75,1.31.09,1.31s.75-1.31-.09-1.31Z"/>
      <path class="cls-2" d="m225.57,230.88c-1.32,0-1.14,1.99.14,1.99s1.14-1.99-.14-1.99Z"/>
      <path class="cls-2" d="m127.2,206.95c-.96,0-.83,1.45.1,1.45s.83-1.45-.1-1.45Z"/>
      <path class="cls-2" d="m516.23,279.66c-2.13,0-1.84,3.21.23,3.21s1.84-3.21-.23-3.21Z"/>
      <path class="cls-2" d="m68.47,204.69c-1.32,0-1.14,1.99.14,1.99s1.14-1.99-.14-1.99Z"/>
      <path class="cls-2" d="m280.41,193.63c-1.52,0-1.32,2.29.16,2.29s1.32-2.29-.16-2.29Z"/>
      <path class="cls-2" d="m346.57,213.54c-1.07,0-.93,1.62.12,1.62s.93-1.62-.12-1.62Z"/>
      <path class="cls-2" d="m106.14,167.02c-2.57,0-2.23,3.89.28,3.89s2.23-3.89-.28-3.89Z"/>
      <path class="cls-2" d="m515.3,172.76c-1.19,0-1.03,1.8.13,1.8s1.03-1.8-.13-1.8Z"/>
      <path class="cls-2" d="m514.32,260.11c-1.07,0-.93,1.62.12,1.62s.93-1.62-.12-1.62Z"/>
      <path class="cls-2" d="m326.75,600.19c-1.07,0-.93,1.62.12,1.62s.93-1.62-.12-1.62Z"/>
    </g>
  </g>
</svg>