<?xml version="1.0" encoding="UTF-8"?>
<svg id="Capa_2" data-name="Capa 2" xmlns="http://www.w3.org/2000/svg" xmlns:xlink="http://www.w3.org/1999/xlink" viewBox="0 0 595.28 841.89">
  <defs>
    <style>
      .cls-1 {
        fill: #fff;
      }

      .cls-2, .cls-3 {
        fill: none;
      }

      .cls-3 {
        clip-path: url(#clippath);
      }
    </style>
    <clipPath id="clippath">
      <rect class="cls-2" width="595.28" height="841.89"/>
    </clipPath>
  </defs>
  <g id="Layer_2" data-name="Layer 2">
    <g class="cls-3">
      <polygon class="cls-1" points="391.8 592.64 391 590.28 392.7 589.66 393.54 592 391.8 592.64"/>
      <path class="cls-1" d="m369.98,541.18c3.42-1.24,6.58-2.3,9.47-3.21.16-.05.33-.1.49-.16.11-.03.22-.07.33-.1h0c5.13-1.6,10.91-3.2,14.89-3.68.15-.02.3-.04.44-.06.07,0,.13-.01.19-.02.4-.04.75-.06,1.05-.07,0,0,.01,0,.02,0,0,0,0,0,0,0,.31,0,.57,0,.77.03l15.98,44.83-26.76,9.78-16.88-47.35Zm39.85,36.98s-6.42-18.01-15.16-42.53c-1.99.32-4.68.92-7.99,1.81l15.51,43.51,7.64-2.79Zm-9.35,3.42l-15.68-43.62c-1.27.36-2.61.76-4.02,1.2l15.53,43.94,4.17-1.52Z"/>
      <path class="cls-1" d="m407.06,590.33l12.18-4.45c2.49.5,10.82,2.76,17.43,11.47,6.36,8.39,14.54,28.88,17.71,37.16-1.16-.13-2.53-.11-4.13.07-3.94.44-8.85,1.79-13.82,3.79-6.42,2.58-12.81,6.24-15.68,9.71-3.12-7.59-10.4-25.68-12.45-34.29-2.66-11.15-1.68-20.46-1.24-23.47Zm28.48,46.42c10.43-4.19,15.92-3.65,15.92-3.65-14.52-38.45-22.88-42.19-29.08-43.39,13.74,22.55,13.16,47.05,13.16,47.05Zm-13.93,7.68c.91-.94,2.19-1.97,2.19-1.97,0,0-15.55-32.9-13.71-49.83,0,0-6.23,11.6,11.53,51.8Z"/>
      <path class="cls-1" d="m386.78,685.68c1.49-.88,3.06-1.59,4.68-2.21,1.62-.58,3.29-1.07,5-1.33,1.71-.26,3.47-.35,5.17,0-3.38.58-6.51,1.61-9.66,2.76-3.14,1.16-6.21,2.44-9.32,3.89,1.21-1.25,2.64-2.25,4.13-3.12Z"/>
      <path class="cls-1" d="m383.12,668.43c.78-.53,1.63-.93,2.5-1.27.88-.31,1.79-.56,2.74-.65.94-.09,1.92-.06,2.83.28-1.8.6-3.38,1.19-5.05,1.81-1.23.44-2.46.88-3.73,1.3l-.36-.65c.34-.3.7-.57,1.08-.82Z"/>
      <path class="cls-1" d="m416.23,649.04c.42,0,1.02-.01,1.65.01.12.3.23.57.34.83-.55.1-1.08.24-1.61.4-.12-.41-.25-.83-.37-1.24Z"/>
      <path class="cls-1" d="m387.81,673.26l-2.92,1.09-.59-1.07c.95-.59,1.96-1.07,3-1.47,1.09-.39,2.22-.71,3.39-.84,1.16-.14,2.36-.14,3.5.2-2.25.59-4.28,1.31-6.36,2.09Z"/>
      <path class="cls-1" d="m420.98,652.77c-1.18.11-2.31.38-3.39.78-.15-.51-.31-1.02-.46-1.53,2-.24,4.03-.03,5.73.74-.63-.05-1.26-.05-1.88,0Z"/>
      <path class="cls-1" d="m416.66,650.45c.59-.06,1.18-.07,1.77-.05.2.49.34.83.43,1.04-.6.12-1.19.27-1.76.47-.15-.49-.29-.98-.44-1.46Z"/>
      <path class="cls-1" d="m390.31,680.25c-.78.29-1.55.6-2.33.9.05-.51,0-1-.16-1.48,0,0,0-.01,0-.02.65-.3,1.31-.58,1.98-.84,1.41-.51,2.86-.92,4.36-1.13,1.49-.21,3.03-.26,4.5.08-2.93.59-5.62,1.49-8.34,2.49Z"/>
      <path class="cls-1" d="m388.65,675.59c-.85.31-1.69.64-2.53.96l-.64-1.16c.86-.47,1.74-.89,2.66-1.25,1.2-.43,2.44-.78,3.71-.94,1.27-.17,2.59-.18,3.83.16-2.47.59-4.73,1.37-7.02,2.22Z"/>
      <path class="cls-1" d="m389.48,677.92c-.72.26-1.43.55-2.15.82l-.69-1.23c.76-.38,1.52-.73,2.31-1.03,1.31-.47,2.65-.85,4.03-1.04,1.38-.19,2.81-.22,4.17.12-2.7.59-5.17,1.43-7.68,2.36Z"/>
      <path class="cls-1" d="m383.66,672.15l-.51-.91c.16-.12.33-.23.49-.34.88-.58,1.84-1.02,2.81-1.4.99-.35,2.01-.63,3.06-.74,1.05-.12,2.14-.1,3.16.24-2.02.59-3.83,1.25-5.71,1.95-1.1.4-2.2.81-3.32,1.21Z"/>
      <path class="cls-1" d="m391.14,682.58c-1.72.63-3.41,1.32-5.11,2.03.7-.67,1.23-1.38,1.56-2.1.99-.51,1.99-.97,3.03-1.37,1.52-.54,3.08-1,4.68-1.23,1.6-.24,3.25-.3,4.84.05-3.15.58-6.07,1.55-9,2.63Z"/>
      <path class="cls-1" d="m387.3,688.14c1.59-.93,3.27-1.69,4.99-2.34,1.73-.62,3.5-1.14,5.33-1.42,1.82-.29,3.7-.39,5.5-.03-3.6.58-6.96,1.67-10.31,2.9-3.35,1.24-6.63,2.62-9.93,4.2,1.3-1.32,2.83-2.38,4.42-3.3Z"/>
      <path class="cls-1" d="m407.95,671.13c-2.69,1.36-5.27,2.96-7.03,4.63.84-2.01,2.58-3.77,4.6-4.98-1.16.39-2.27.96-3.3,1.68-.51.35-1,.76-1.45,1.21.9-1.84,2.51-3.45,4.39-4.58-1.16.39-2.27.96-3.3,1.68-.51.35-1,.76-1.45,1.21.9-1.84,2.51-3.45,4.39-4.58-1.16.39-2.27.96-3.3,1.68-.51.35-1,.76-1.45,1.21.9-1.84,2.51-3.45,4.39-4.58-1.16.39-2.27.96-3.3,1.68-.51.35-1,.76-1.45,1.21.9-1.84,2.51-3.45,4.39-4.58-1.16.39-2.27.96-3.3,1.68-.51.35-1,.76-1.45,1.21.9-1.84,2.51-3.45,4.39-4.58-1.16.39-2.27.96-3.3,1.68-.51.35-1,.76-1.45,1.21.9-1.84,2.51-3.45,4.39-4.58-1.16.39-2.27.96-3.3,1.68-.51.35-1,.76-1.45,1.21.88-1.8,2.44-3.36,4.26-4.49,1.66,4,3.39,8.1,5.11,12.16Z"/>
      <path class="cls-1" d="m398.77,686.61c1.92-.32,3.92-.4,5.84-.07-1.92.26-3.76.74-5.58,1.24-1.82.53-3.61,1.13-5.39,1.79-1.78.64-3.54,1.37-5.29,2.1-1.75.76-3.5,1.52-5.23,2.4,2.83-2.73,6.38-4.56,10.01-5.94,1.83-.66,3.72-1.21,5.65-1.52Z"/>
      <path class="cls-1" d="m280.51,325.1c.13-1.24.3-2.27.53-3.04,1.57-5.4,3.93-9.04,6.48-9.97.06-.02.13-.03.2-.05-3.08,2.53-4.81,9.09-5.4,11.73-.65.43-1.26.88-1.81,1.33Z"/>
      <polygon class="cls-1" points="483.83 566.93 485.47 568.53 487.7 568.07 486.71 570.14 487.83 572.15 485.58 571.83 484.04 573.53 483.64 571.26 481.57 570.31 483.57 569.22 483.83 566.93"/>
      <path class="cls-1" d="m434.5,649.66c.78-.53,1.63-.93,2.5-1.27.88-.31,1.79-.56,2.74-.65.22-.02.44-.03.66-.04l.15,1.02c-1.02.37-2.02.73-3.03,1.11-1.67.6-3.29,1.21-5.11,1.75.56-.79,1.31-1.4,2.09-1.92Z"/>
      <path class="cls-1" d="m318.78,335.01c-2.18-3.1-4.37-6.11-6.48-8.89l-9.64-26.91c.96-.42,1.93-.86,2.9-1.31l13.23,37.11Z"/>
      <path class="cls-1" d="m435.02,652.12c.88-.58,1.83-1.02,2.81-1.4.94-.33,1.9-.59,2.9-.72l.18,1.23c-.86.3-1.7.61-2.56.93-1.88.68-3.71,1.39-5.71,2.05.66-.86,1.5-1.53,2.38-2.09Z"/>
      <path class="cls-1" d="m435.54,654.59c.98-.63,2.04-1.12,3.12-1.54.79-.28,1.59-.49,2.41-.66l.2,1.36c-.7.24-1.39.48-2.09.74l-6.32,2.36c.75-.92,1.69-1.65,2.67-2.27Z"/>
      <path class="cls-1" d="m301.03,463.74l-18.31-51.19-20.9-58.42c-4.46-12.61-9.05-25.18-13.47-37.79,13.45-1.58,35.76-9.68,37.06-10.15.5-.18,4.07-1.49,8.91-3.45,1,2.79,2,5.59,3,8.38-4.23-2.25-8-2.95-10.83-1.92-3.52,1.29-6.49,5.55-8.36,11.99-2.58,8.91.66,44.33,3.27,58.67.43,2.37,5.73,27.25,7.4,31.96h0s2.8,7.84,2.8,7.84c.26,1.03,5.06,20.41,9.44,44.08Z"/>
      <path class="cls-1" d="m305.72,318.02c-2.05-2.31-3.85-4.06-5.23-5.01,0,0,0,0-.01,0l-3.99-11.16c.97-.4,1.98-.83,3.01-1.27,2.09,5.81,4.16,11.63,6.22,17.44Z"/>
      <path class="cls-1" d="m296.41,321.22l1.69,4.75c.37,1.04.06,1.15-.12,1.22l-4.5,1.64-4.5,1.64c-.18.07-.49.18-.86-.86l-1.69-4.75c1.39-.74,3-1.47,4.87-2.16,1.87-.68,3.58-1.16,5.11-1.49Z"/>
      <path class="cls-1" d="m402.83,658.94c-1.1.39-2.17.93-3.16,1.61-.51.35-1,.76-1.45,1.21.83-1.71,2.29-3.19,3.99-4.3.2.49.41.99.62,1.48Z"/>
      <path class="cls-1" d="m436.59,659.51c1.19-.73,2.45-1.31,3.75-1.8.48-.17.96-.31,1.45-.46l.21,1.47s0,0,0,.01c-.38.14-.76.27-1.15.41-2.51.92-4.96,1.91-7.52,2.97.93-1.05,2.07-1.89,3.25-2.61Z"/>
      <path class="cls-1" d="m451.9,651.25c-1.02.14-2.1.4-3.2.8-1.7.62-3.15,1.46-4.27,2.41l-1.38-9.37c.92-.71,1.99-1.23,3.02-1.14-.32.15-.64.31-.95.48.6-.12,1.21-.19,1.81-.23.31.15.61.35.88.67,0,0,0,0,0,0-.75.26-1.46.59-2.13.95.9-.18,1.81-.27,2.69-.25.13.18.27.36.41.56-.9.27-1.74.65-2.53,1.08,1.04-.21,2.1-.3,3.11-.23.1.15.2.3.3.46-1.01.27-1.96.68-2.83,1.16,1.15-.23,2.33-.33,3.42-.21.08.13.15.25.23.38-1.11.26-2.13.7-3.08,1.22,1.24-.25,2.52-.35,3.69-.18.06.1.12.2.17.3-1.19.25-2.29.72-3.29,1.27,1.33-.27,2.69-.35,3.92-.13Z"/>
      <path class="cls-1" d="m438.15,666.91c1.49-.88,3.06-1.59,4.68-2.21,1.62-.58,3.29-1.07,5-1.33,1.71-.26,3.47-.35,5.17,0-3.38.58-6.51,1.61-9.65,2.76-3.14,1.16-6.21,2.44-9.32,3.89,1.21-1.25,2.64-2.25,4.13-3.12Z"/>
      <path class="cls-1" d="m439.56,643.08c.44-1,2.63-5.1,8.55-3.68l.02.05c-1.19.21-2.42.55-3.57.97-1.79.65-3.64,1.58-5,2.67Z"/>
      <path class="cls-1" d="m450.15,667.84c1.93-.32,3.92-.4,5.84-.07-1.92.26-3.76.74-5.58,1.24-1.82.53-3.61,1.13-5.39,1.79-1.78.64-3.54,1.37-5.29,2.1-1.75.76-3.5,1.52-5.23,2.4,2.83-2.73,6.38-4.56,10.01-5.94,1.83-.66,3.72-1.21,5.65-1.52Z"/>
      <path class="cls-1" d="m437.63,664.44c1.39-.83,2.86-1.5,4.37-2.07.64-.23,1.3-.43,1.95-.62.71.38,1.59.61,2.58.69-1.35.42-2.68.88-4.01,1.37-2.93,1.08-5.79,2.27-8.72,3.58,1.12-1.19,2.45-2.13,3.84-2.95Z"/>
      <path class="cls-1" d="m438.68,669.37c1.59-.93,3.27-1.69,4.99-2.34,1.73-.62,3.5-1.14,5.33-1.42,1.82-.29,3.7-.39,5.5-.03-3.6.58-6.96,1.67-10.31,2.9-3.35,1.24-6.62,2.62-9.93,4.2,1.3-1.32,2.83-2.38,4.42-3.3Z"/>
      <path class="cls-1" d="m437.11,661.98c1.29-.78,2.65-1.4,4.06-1.94.33-.12.67-.21,1-.31,0,.03.01.06.02.08.17.47.43.87.78,1.22-.43.15-.85.3-1.28.46-2.72,1-5.38,2.09-8.12,3.28,1.02-1.12,2.26-2.01,3.55-2.78Z"/>
      <path class="cls-1" d="m436.06,657.05c1.08-.68,2.24-1.21,3.43-1.67.63-.23,1.28-.42,1.93-.59l.21,1.45c-.54.19-1.08.39-1.62.59-2.3.84-4.54,1.74-6.92,2.67.84-.99,1.88-1.77,2.96-2.44Z"/>
      <path class="cls-1" d="m426.65,545.68c-3.72-10.43-10.29-28.67-14.74-41.01l-2.92-1.22-17.32-14.33-15.86-30.48.26-.1,16.54,29.41.27.22.03.06,7.72,6.35,9.31,7.7,104.69,43.65,19.05,21.74-91.06,33.27c-1.2-2.09-2.4-3.96-3.54-5.47-5.82-7.68-13.75-10.87-18.46-12.15l-3.72-4.44-41.77-117.17,9.51,22.17,33.26,93.3,3.78,4.33s13.71,2.27,21.86,17.46l27.4-10.01s-34.96-17.17-44.28-43.29Zm63.91,18.15l2.74,7.69c.17.47.69.72,1.16.55l8.47-3.09.13-.05,8.47-3.09c.47-.17.71-.7.54-1.17l-2.74-7.69c-.17-.47-.69-.72-1.16-.55l-8.47,3.09-.13.05-8.47,3.09c-.47.17-.71.7-.54,1.17Zm-10.53,8.23c.99,2.79,4.03,4.23,6.78,3.23,2.75-1,4.17-4.08,3.18-6.86s-4.03-4.23-6.78-3.23c-2.75,1-4.17,4.08-3.18,6.86Z"/>
      <path class="cls-1" d="m416.58,389.38c-3.37,2.98-9.08,5.66-13.08,7.33-.02,0-.04.02-.06.03,0,0,0,0,0,0-.82.34-1.56.64-2.2.89h0s-.01,0-.02,0c-.97.38-1.69.64-2.03.77-.25.09-.72.26-1.33.47-3.65,1.28-6.88,2.19-9.62,2.8h0c-.76.16-1.53.32-2.29.45,0,0,0,0,0,.01-.73.13-1.41.24-2.05.33v-.02c-1.23.16-2.4.24-3.47.23v.04c-.4,0-.76-.03-1.05-.08-.35-.06-.61-.14-.77-.24,0-.02-.03-.03-.04-.05l-17.62-49.43c.72.06,1.51.06,2.35.02l16.5,47.93c1.08-.03,2.22-.13,3.4-.29l-17.65-47.86c.98-.13,2-.31,3.02-.51,5.52,16.03,11.07,32.05,16.7,48.04.75-.14,1.5-.29,2.27-.47-5.76-15.99-11.61-31.94-17.49-47.89,5.23-1.19,10.26-2.99,11.33-3.38.38-.14,1.25-.46,2.41-.92l2.51,7.26,8.12,23.46c2.04,5.83,4.06,11.66,6.13,17.47.75-.28,1.49-.55,2.22-.83-2.07-5.81-4.19-11.59-6.3-17.39l-8.55-23.3-2.67-7.26c1.09-.45,2.32-.98,3.61-1.57l16.48,48.52c1.44-.57,2.81-1.12,4.08-1.65l-17.97-48.11c.77-.38,1.54-.79,2.29-1.2l17.45,48.58c2.23-.92,4.08-1.69,5.36-2.15Z"/>
      <path class="cls-1" d="m385.41,298.15c-.23.27-.63.63-1.2,1.05l-.02-.02c-5.6,4.35-16.72,8.17-18.22,8.73-.37.13-1.13.4-2.13.73-3.08,1.04-5.8,1.83-8.13,2.41v-.02c-.21.05-.42.1-.62.15v.02c-1.57.38-2.95.66-4.13.85v-.02c-.43.07-.85.13-1.25.17v.03c-1.5.19-2.56.21-3.13.11v-.03c-.69-15.23-1.27-28.16-1.72-38.34.57-.02,1.26-.11,2.1-.27l2.67,37.25c.4-.03.81-.08,1.22-.13l-3.47-37.21c1.63-.34,3.78-.97,6.63-2.01.83-.3,1.57-.59,2.27-.87l17.74,32.52c.48-.21.95-.41,1.41-.62l-18.72-32.07c.84-.35,1.62-.68,2.29-.99l19.2,31.84c2.27-1.02,4.24-1.93,5.75-2.61l-17.14-25.59c7.02,9.39,14.25,19.09,18.61,24.94Zm-35.49-18.33l4.99,30.26c.2-.05.4-.1.6-.15l-5.59-30.11Zm5.77-5.85l13.35,31.37c.21-.08.42-.17.63-.25l-13.98-31.12Z"/>
      <path class="cls-1" d="m398.73,335.36c-.08.28-.4.69-.93,1.19l-12.35-34.51c.4-.29.77-.58,1.11-.88l12.17,34.14s0,.04,0,.07Z"/>
      <path class="cls-1" d="m360.58,349.83c-.35-.06-.61-.14-.77-.24,0-.02-.03-.03-.04-.05l-12.16-34.12c.83.01,1.76-.06,2.74-.18l11.29,32.79c.69-.03,1.41-.1,2.15-.18l-12.09-32.8c1.26-.2,2.58-.48,3.91-.8l.09.54v.03s.02.03.02.03c3.76,10.83,7.49,21.67,11.22,32.5.46-.09.92-.18,1.39-.29-3.98-10.81-7.97-21.62-11.93-32.44l-.1-.54c4.98-1.24,9.9-2.98,11.59-3.6.59-.21,1.57-.58,2.79-1.06l11.52,33.37c.46-.17.92-.34,1.38-.52l-12.19-33.14c1.35-.54,2.91-1.19,4.55-1.92l11.41,33.59c.87-.35,1.71-.69,2.52-1.02l-12.42-33.26c.93-.43,1.86-.89,2.77-1.35l12.07,33.62c2.29-.94,4.18-1.73,5.48-2.2-3.37,2.98-9.1,5.67-13.1,7.34-.11.04-.21.09-.32.13-.64.26-1.22.5-1.75.7-.06.02-.12.05-.18.07-.97.38-1.7.64-2.03.77-.25.09-.72.26-1.33.47-3.84,1.34-7.22,2.28-10.04,2.89,0,0,0,0,0-.01-.48.1-.95.2-1.43.29,0,0,0,0,0,.01-1.15.22-2.18.37-3.1.48v-.02c-.77.08-1.51.13-2.21.15v.04c-.69.02-1.27,0-1.69-.07Z"/>
      <path class="cls-1" d="m237.59,164.44c-.15.06-.25.11-.25.11h0c-.67.27-1.37.54-2.13.82-3.91,1.43-6.81,2.12-8.42,2.36,1.5-3.63,3.22-7.2,5.21-10.67,3.87,1.33,7.56,2.93,11.11,4.72-.25.15-.54.32-.88.5h0c-.71.42-2.37,1.17-3.56,1.69,0,0,0,0,.01.01-.35.15-.72.3-1.1.46Zm2.91-2.13c-2.34-1.27-4.6-2.42-6.78-3.53,0,0,1.61,1.54,4.28,4.44,1.01-.37,1.87-.69,2.5-.91Z"/>
      <path class="cls-1" d="m255.5,387.7c-.08.28-.4.69-.93,1.19l-12.35-34.51c.4-.29.77-.58,1.11-.88l12.17,34.14s0,.04,0,.07Z"/>
      <path class="cls-1" d="m217.34,402.16c-.35-.06-.61-.14-.77-.24,0-.02-.03-.03-.04-.05l-12.16-34.12c.83.01,1.76-.06,2.74-.18l11.29,32.79c.69-.03,1.41-.1,2.15-.18l-12.09-32.8c1.26-.2,2.58-.48,3.91-.8l.09.54v.03s.02.03.02.03c3.76,10.83,7.49,21.67,11.22,32.5.46-.09.92-.18,1.39-.29-3.98-10.81-7.97-21.62-11.93-32.43l-.1-.54c4.98-1.24,9.9-2.98,11.59-3.6.59-.21,1.57-.58,2.79-1.06l11.52,33.37c.46-.17.92-.34,1.38-.52l-12.19-33.14c1.35-.54,2.91-1.19,4.55-1.92l11.41,33.59c.87-.35,1.71-.69,2.52-1.02l-12.42-33.26c.93-.43,1.86-.89,2.77-1.35l12.07,33.62c2.29-.94,4.18-1.73,5.48-2.2-3.37,2.98-9.1,5.67-13.1,7.34-.11.04-.21.09-.32.13-.64.26-1.22.5-1.75.7-.06.02-.12.05-.18.07-.97.38-1.7.64-2.03.77-.25.09-.72.26-1.33.47-3.84,1.34-7.22,2.28-10.04,2.89,0,0,0,0,0-.01-.48.1-.95.2-1.43.29,0,0,0,0,0,.01-1.15.22-2.18.37-3.1.48v-.02c-.77.08-1.51.13-2.21.15v.04c-.69.02-1.27,0-1.69-.07Z"/>
      <path class="cls-1" d="m360.26,265.38c-.4.25-1.4.82-2.88,1.52h0c-.49.24-1.04.48-1.62.73-.82.35-1.73.72-2.73,1.08-.02,0-.03.01-.05.02-.04.01-.08.03-.11.04-.29.11-.59.21-.9.31-1.96.68-3.61,1.14-4.88,1.43v-.03c-.12.03-.24.05-.36.08v.03c-.4.09-.77.16-1.09.21-.01,0-.03,0-.04,0h0c-.36.06-.64.09-.88.1-.56-12.78-.89-20.6-.93-22.33.24-.31.77-.75,1.62-1.06.08-.03.15-.04.23-.07l11.49,19.06c1.23-.44,2.32-.84,3.12-1.13Zm-14.71-11.39l1.14,15.89c.11-.02.22-.05.34-.08l-1.48-15.81Zm3.29,3.1l5.65,10.36c.11-.04.22-.08.33-.11l-5.98-10.25Z"/>
      <path class="cls-1" d="m304.21,294.11c3.32-1.33,6.9-2.81,11.51-4.74-3.39,1.94-7.3,3.88-11.18,5.66,0,0,0,.01,0,.02-.94.43-1.91.87-2.91,1.32v-.03c-1.08.47-2.13.93-3.17,1.37,0,0,0,.02.01.03-.98.42-1.98.84-3.01,1.26v-.03c-.75.31-1.48.6-2.17.89,0,0,0,.02,0,.02-1.7.68-3.48,1.38-5.31,2.07-2,.77-3.32,1.25-3.6,1.36-.27.1-1.47.53-3.31,1.17-10.22,3.6-18.89,6.05-25.52,7.51-5.01,1.12-9.69,1.85-13.06,1.72.09-.02.17-.04.26-.05-.71-.06-1.22-.19-1.51-.38-11.62-31.42-34.18-92.94-15.7-142.4,1.74.07,4.88-.5,10.69-2.62,1.83-.67,3.33-1.28,4.61-1.85,8.97,10.23,24.6,30.22,36.2,56.83,10.26,23.54,23.84,61.52,27.15,70.87Zm-14.12-3.17c.91,2.52,1.81,5.04,2.71,7.56.75-.28,1.48-.55,2.19-.82l-2.7-7.56c-6.8-18.81-13.76-37.58-21.48-56.05-3.85-9.24-7.97-18.38-12.56-27.29-4.59-8.92-9.83-17.46-15.53-25.66,19.41,34.92,33.69,72.26,47.37,109.81Zm-64.18-55.22c-1.6-10.16-2.59-20.43-2.21-30.69.21-10.27,2.38-20.42,3.42-30.76-1.16,5.05-2.39,10.07-3.43,15.16-.99,5.1-1.75,10.27-2.07,15.49-.65,10.44.22,20.92,1.87,31.19,3.35,20.57,9.19,40.54,15.58,60.24,1.84,5.65,3.77,11.28,5.74,16.88.76-.16,1.53-.31,2.29-.47-1.98-5.7-3.93-11.42-5.79-17.15-6.32-19.64-12.07-39.55-15.39-59.89Zm32.59-41.62c-2.74-4.38-5.7-8.62-8.87-12.67-3.18-4.04-6.52-7.92-9.92-11.75,2.61,4.44,5.39,8.75,8.16,13.04,2.78,4.28,5.38,8.64,7.94,13.02,4.98,8.85,9.34,18.06,13.55,27.36,8.26,18.69,15.62,37.82,22.72,57.05,2.01,5.45,3.99,10.91,5.96,16.38,1.08-.41,2.14-.82,3.2-1.24l-5.87-16.38c-7.05-19.29-14.34-38.51-22.67-57.34-4.19-9.4-8.79-18.67-14.21-27.47Z"/>
      <path class="cls-1" d="m242.18,350.49c-.23.27-.63.63-1.2,1.05l-.02-.02c-5.6,4.35-16.72,8.17-18.22,8.73-.37.13-1.13.4-2.13.73-3.08,1.04-5.8,1.83-8.13,2.41v-.02c-.21.05-.42.1-.62.15v.02c-1.57.38-2.95.66-4.13.85v-.02c-.43.07-.85.13-1.25.17v.03c-1.5.19-2.56.21-3.13.11v-.03c-.69-15.23-1.27-28.16-1.72-38.34.57-.02,1.26-.11,2.1-.27l2.67,37.25c.4-.03.81-.08,1.22-.13l-3.47-37.21c1.63-.34,3.78-.97,6.63-2.01.83-.3,1.57-.59,2.27-.87l17.74,32.52c.48-.21.95-.41,1.41-.62l-18.72-32.07c.84-.35,1.62-.68,2.29-.99l19.2,31.84c2.27-1.02,4.24-1.93,5.75-2.61l-17.14-25.59c7.02,9.39,14.25,19.09,18.61,24.94Zm-35.49-18.33l4.99,30.26c.2-.05.4-.1.6-.15l-5.59-30.11Zm5.77-5.85l13.35,31.37c.21-.08.42-.17.63-.26l-13.98-31.12Z"/>
      <path class="cls-1" d="m521.72,541.22c5.98,9.77,12.82,21.11,15.3,25.23l-.8.29c-2.72-4.03-12.27-18.19-15.95-23.7-4.31-6.45-15.66-11.15-15.66-11.15,0,0-74.91-29.38-82.73-32.43-7.82-3.05-14.63-7.66-14.63-7.66,0,0-11.66-5.68-17.66-15.65-5.95-9.88-18.2-31.15-24.08-41.38l-4.73-13.27c8.37,16.18,20.35,38.08,32.36,55.73,8.63,12.69,33.89,21.87,34.92,22.24l74.07,28.99c.15.06,15.42,5.95,19.58,12.76Z"/>
      <path class="cls-1" d="m456.39,497.07l4.22,11.84-1.34-.52-3.76-10.51c.32-.27.61-.54.88-.81Z"/>
      <path class="cls-1" d="m274.53,444.7c.36-.3.68-.6.99-.89l17.62,49.43s0,.04,0,.07c-.08.27-.36.64-.83,1.09l-17.78-49.69Z"/>
      <polygon class="cls-1" points="272.35 409.58 267.31 411.43 265.37 405.99 270.41 404.14 272.35 409.58"/>
      <path class="cls-1" d="m245.97,316.54c1.08,3.06,2.17,6.11,3.26,9.16l10.38,29.24,20.77,58.47,23.27,65.52c.85,5.32,1.64,10.69,2.31,16l-63.6-178.43c1.04.12,2.26.12,3.6.04Z"/>
      <path class="cls-1" d="m274.31,440.43s0,.04,0,.07c-.08.28-.38.66-.88,1.14l-17.78-49.7c.38-.31.72-.62,1.04-.94l17.62,49.43Z"/>
      <polygon class="cls-1" points="281.53 646.39 279.99 648.09 279.59 645.82 277.52 644.87 279.53 643.78 279.78 641.49 281.42 643.09 283.65 642.63 282.66 644.7 283.78 646.71 281.53 646.39"/>
      <path class="cls-1" d="m358.5,608.07l12.07-4.41c2.24,2.02,8.85,8.53,13.85,18.86,3.85,7.95,9.66,26.58,12.04,34.44-4.4-.82-11.62.5-18.19,2.67-5.09,1.67-9.72,3.81-13.02,6.02-1.34.89-2.42,1.77-3.22,2.61-2.78-8.42-9.42-29.48-9.81-40.05-.41-10.82,4.57-17.99,6.29-20.14Zm18.76,49.38c11.15-3.06,16.44-2.82,16.44-2.82-10.93-38.61-18.38-43.7-24.43-46.44,11.43,24.47,7.99,49.27,7.99,49.27Zm-14.11,7.38c.98-.86,2.65-2.07,2.65-2.07,0,0-13.6-34.91-7.07-50.73-2.42,3.57-9.17,12.5,4.42,52.8Z"/>
      <path class="cls-1" d="m313.59,481.38l42.64,119.62-.35,5.42c-2.78,4.03-7.08,11.94-6.7,21.9.07,1.9.33,4.11.72,6.5l-90.42,33.04.14-28.75,52.98-101.18,4.37-22.19-5.84-33.47,2.46-.9Zm-27.66,161.59c-.99-2.79-4.03-4.23-6.78-3.23s-4.17,4.08-3.18,6.86,4.03,4.23,6.78,3.23c2.75-1,4.17-4.08,3.18-6.86Zm22.08-3.76l-2.74-7.69c-.17-.47-.69-.72-1.16-.55l-8.47,3.09-.13.05-8.47,3.09c-.47.17-.71.7-.54,1.17l2.74,7.69c.17.47.69.72,1.16.55l8.47-3.09.13-.05,8.47-3.09c.47-.17.71-.7.54-1.17Zm26.49-.4c7.64-2.79,13.64-4.98,13.64-4.98-3.31-16.96,5.81-27.57,5.81-27.57l.17-5.78-21.17-59.4-12.08-33.9s31.47,105.56,13.63,131.63Z"/>
      <path class="cls-1" d="m402.18,657.36c-.73.28-1.43.63-2.11,1.04-.07-.22-.17-.55-.3-.97.55-.55,1.17-1.04,1.82-1.49.2.47.39.94.59,1.42Z"/>
      <path class="cls-1" d="m254.21,507.53s-.03-.03-.04-.05l-17.62-49.43c.54.05,1.11.06,1.72.04l.67,1.95,16.29,45.95c1.18-.02,2.42-.13,3.72-.31l-16.78-46.83-.4-1.1c.65-.1,1.32-.21,1.99-.34.38,1.06.74,2.13,1.12,3.19l15.93,44.77c.79-.14,1.59-.31,2.4-.49l-16.1-45.09c-.34-.96-.7-1.92-1.04-2.88,5.08-1.19,9.88-2.9,10.92-3.29.34-.12,1.06-.39,2.04-.78.14.39.28.79.42,1.18l16.67,46.87c.77-.28,1.53-.57,2.27-.85l-16.73-46.83c-.14-.42-.3-.84-.45-1.26.77-.32,1.6-.68,2.48-1.07l.37,1.1,16.69,47.15c1.58-.62,3.08-1.23,4.46-1.8l-16.84-46.92-.56-1.5c.56-.29,1.11-.58,1.65-.88l17.45,48.6c2.18-.9,3.99-1.65,5.24-2.1-5.03,4.5-15.75,8.42-17.38,9.01-.25.09-.72.26-1.33.47-3.62,1.27-6.84,2.17-9.56,2.78h0c-.8.17-1.61.33-2.41.48h0c-.65.13-1.28.23-1.85.31v-.02c-1.34.18-2.61.27-3.76.24v.04c-.33-.01-.65-.03-.9-.07-.35-.06-.61-.14-.77-.24Z"/>
      <path class="cls-1" d="m282.89,567.44l-1.09,1.97-2.18-6.09c.56-.09,1.13-.18,1.7-.3l1.57,4.41Z"/>
      <path class="cls-1" d="m273.35,441.72c-3.37,2.98-9.08,5.66-13.08,7.33-.02,0-.04.02-.06.03,0,0,0,0,0,0-.82.34-1.56.64-2.2.89t0,0s-.01,0-.02,0c-.97.38-1.69.64-2.03.77-.25.09-.72.26-1.33.47-3.65,1.28-6.88,2.19-9.62,2.8,0,0,0,0,0,0-.76.17-1.53.32-2.29.46h0c-.73.14-1.41.25-2.05.34v-.02c-1.23.16-2.4.24-3.47.23v.04c-.4,0-.76-.03-1.05-.08-.35-.06-.61-.14-.77-.24,0-.02-.03-.03-.04-.05l-17.62-49.43c.72.06,1.51.06,2.35.02l16.5,47.93c1.08-.03,2.22-.13,3.4-.29l-17.65-47.86c.98-.13,2-.31,3.02-.51,5.52,16.03,11.07,32.05,16.7,48.04.75-.14,1.5-.29,2.27-.47-5.76-15.99-11.61-31.94-17.49-47.89,5.23-1.19,10.26-2.99,11.33-3.38.38-.14,1.25-.46,2.41-.92l2.51,7.26,8.12,23.46c2.04,5.83,4.06,11.66,6.13,17.47.75-.28,1.49-.55,2.22-.83-2.07-5.81-4.19-11.59-6.3-17.39l-8.55-23.3-2.67-7.26c1.09-.45,2.32-.98,3.61-1.57l16.48,48.52c1.44-.57,2.81-1.12,4.08-1.65l-17.97-48.11c.77-.38,1.54-.79,2.29-1.2l17.45,48.58c2.23-.92,4.08-1.69,5.36-2.15Z"/>
      <path class="cls-1" d="m279.32,573.91l-.89,1.61-4.23-11.87c.47.04.97.06,1.5.05l3.62,10.21Z"/>
      <path class="cls-1" d="m283.8,562.49c.71-.17,1.41-.35,2.1-.53l-1.39,2.52-.71-1.99Z"/>
      <path class="cls-1" d="m273.03,560.33s-.03-.03-.04-.05l-17.62-49.43c.5.04,1.04.06,1.6.04l15.15,42.73,1.83,5.17c1.23-.02,2.54-.13,3.92-.32l-2.2-6.14-14.97-41.79c.6-.09,1.22-.2,1.84-.32l15.49,43.54,1.57,4.42c.81-.15,1.64-.32,2.48-.51l-1.7-4.76-15.43-43.21c5.06-1.19,9.83-2.89,10.88-3.27.33-.12,1.05-.39,2.01-.77l14.9,41.9.44,1.23-5.19,9.41c-1.89.56-3.65,1.03-5.22,1.38h0c-.83.18-1.66.34-2.48.49h0c-.6.12-1.18.22-1.72.29v-.02c-1.41.19-2.75.29-3.96.25v.04c-.29-.01-.57-.03-.8-.07-.35-.06-.61-.14-.77-.24Z"/>
      <path class="cls-1" d="m304.41,524.86c-.19.57-.39,1.13-.6,1.69l-10.41-29.09c.34-.28.65-.57.93-.85l10.07,28.25Z"/>
      <path class="cls-1" d="m286.78,501.65c.55-.29,1.1-.58,1.64-.88l12.13,33.77c-.37.83-.74,1.62-1.1,2.38l-12.66-35.27Z"/>
      <path class="cls-1" d="m399.39,656.21c.54-.55,1.19-1.11,1.68-1.51.15.36.3.73.45,1.09-.67.27-1.32.61-1.95,1-.05-.18-.11-.37-.18-.57Z"/>
      <path class="cls-1" d="m294.78,545.87l-14.69-41.13c.72-.3,1.5-.64,2.32-1l13.92,39.34c-.85,1.58-1.4,2.52-1.43,2.57l-.12.22Z"/>
      <polygon class="cls-1" points="291.13 387.43 289.33 374.93 290.57 375.4 292.08 386.87 291.13 387.43"/>
      <path class="cls-1" d="m398.61,458.51c.5.04,1.04.06,1.6.04l10.4,29.32c-.65-.38-1.3-.76-1.94-1.16l-10.05-28.21Z"/>
      <path class="cls-1" d="m421.34,666.25c-1.23-4.23-2.49-8.5-3.73-12.65,2.09-.3,4.26-.1,6.05.71-.63-.05-1.26-.05-1.88,0-1.25.12-2.46.4-3.6.85,2.16-.34,4.42-.15,6.27.69-.63-.05-1.26-.05-1.88,0-1.25.12-2.46.4-3.6.85,2.16-.34,4.42-.15,6.27.69-.63-.05-1.26-.05-1.88,0-1.25.12-2.46.4-3.6.85,2.16-.34,4.42-.15,6.27.69-.63-.05-1.26-.05-1.88,0-1.25.12-2.46.4-3.6.85,2.16-.34,4.41-.15,6.27.69-.63-.05-1.26-.05-1.88,0-1.25.12-2.46.4-3.6.85,2.16-.34,4.42-.15,6.27.69-.63-.05-1.26-.05-1.88,0-1.25.12-2.46.4-3.6.85,2.16-.34,4.42-.15,6.27.69-.63-.05-1.26-.05-1.88,0-1.25.12-2.46.4-3.6.85,2.31-.37,4.74-.14,6.65.85-2.39-.14-5.34.3-8.24.98Z"/>
      <path class="cls-1" d="m446.16,675.19c-6.49,2.37-11.88,4.92-14.03,6.53-.28-.03-.46-.07-.54-.13.08-.71,4.41-3.99,14.16-7.55,9.6-3.51,14.99-3.83,15.63-3.37-.03.11-.15.28-.35.48-2.68.16-8.41,1.68-14.87,4.04Z"/>
      <path class="cls-1" d="m450.7,637.64c2.72-.3,4.42-.08,4.91.34l3.07,8.62-4.23,1.55-3.74-10.5Z"/>
      <path class="cls-1" d="m455.19,493.7s0,.04,0,.07c-.08.26-.34.61-.78,1.04l-17.77-49.68c.34-.28.65-.57.93-.85l17.62,49.43Z"/>
      <path class="cls-1" d="m454.23,494.99c-2.97,2.66-7.93,5.11-11.82,6.8l-2.62-1.02c.24-.09.48-.18.71-.27l-2.19-6.13-14.99-41.96c.72-.3,1.5-.64,2.32-1l14.69,41.51,2.38,6.72c1.66-.66,3.24-1.3,4.69-1.89l-2.35-6.55-15.04-41.89c.55-.29,1.1-.58,1.64-.88l17.46,48.61c2.12-.87,3.89-1.6,5.12-2.05Z"/>
      <path class="cls-1" d="m449.91,504.72l-.96-2.67c.55-.29,1.1-.58,1.64-.88l1.6,4.45-2.28-.89Z"/>
      <path class="cls-1" d="m436.37,440.9s0,.04,0,.07c-.08.27-.36.64-.83,1.09l-17.78-49.69c.36-.3.68-.6.99-.89l17.62,49.43Z"/>
      <path class="cls-1" d="m541.53,578.07l-93.21,34.06c-1.29-2.78-2.63-5.52-3.97-8.05l94.19-34.42,3,8.41Zm-15.93-1.87l-11.01,4.02-22.01,8.04-15.53,5.67s-.05-.06-.08-.09l-30.18,11.03s1.34,2.56,2.49,5.2l31.04-11.34s-.63-1.73-2.14-3.57l14.92-5.45,22.01-8.04,11.01-4.02c3.58-1.58,7.18-3.11,10.75-4.74-3.77,1.05-7.51,2.2-11.26,3.3Z"/>
      <path class="cls-1" d="m544.61,593.97l-86.68,41.32c-1.32-3.53-4.53-11.88-8.33-20.36l92.68-33.86,2.33,12.91Zm-16.64-6.38l-10.78,3.94-21.57,7.88-12.76,4.66s0-.02-.01-.03l-18.98,6.94c-.2.07-.4.15-.6.22-1.69.54-3.36,1.11-4.99,1.83l-6.91,2.52s5.32,11.43,7.38,17.21l28.61-13.52s-.69-6.69-3.5-13.08l12.54-4.58,21.57-7.88,10.78-3.94c3.46-1.68,6.96-3.27,10.4-5.02-3.75.87-7.44,1.91-11.17,2.86Z"/>
      <path class="cls-1" d="m394.5,629.95c-5.97-16.75-5.37-26.85-4.67-30.91,2.05,1.75,5.73,5.59,9.73,12.88-4.05-5.14-7.99-8.24-7.99-8.24,0,0,3.84,5.81,6.67,13.76,2.83,7.95,19.38,54.38,19.38,54.38,0,0,9.56,26.82,9.66,34.42-.5-.86-1.07-1.88-1.73-3.08-4.87-9.01-26.41-60.16-31.05-73.2Z"/>
      <path class="cls-1" d="m318.6,344.34c-4.22-6.1-7.68-10.14-9.84-12.26,0,0,2.78,4.74,6.62,12.44-.85.09-1.73.22-2.62.36-3.34-7.08-6.94-14.03-11.05-20.67,3.81,6.73,7.1,13.72,10.13,20.82-3.66.67-7.61,1.77-11.44,3.17-7.75,2.83-15.09,6.91-18.67,10.9-1.02-10.41-1.66-21.46-1.5-29.08.19-.82,1.77-2.56,4.86-4.41l1.61,4.52c.8,2.24,2.23,1.99,2.8,1.78l4.5-1.64,4.5-1.64c.58-.21,1.83-.94,1.03-3.18l-1.61-4.52c3.55-.58,5.87-.26,6.52.25,4.93,5.75,11.41,14.68,17.19,23.34-.93-.13-1.94-.2-3.03-.19Z"/>
      <path class="cls-1" d="m251.81,639.84c-1.09-7.93,6.94-22.34,7.03-22.5l38.69-70.15c.58-.99,14.22-24.38,12.87-39.73-.47-5.33-1.11-10.86-1.87-16.45,1.43,5.1,3.51,13.87,3.44,21.85-.1,12.15-7.76,26.07-7.76,26.07l-43.63,80.62s-6.89,12.32-7.22,18.15c-.28,4.95,2.71,25.07,3.63,31.06l-1.04.38c-.69-4.78-2.58-17.93-4.14-29.31Z"/>
      <path class="cls-1" d="m256.82,672.6l93.73-34.25c.56,2.82,1.26,5.79,2.02,8.76l-92.76,33.89-3-8.41Zm14.57-1.88l11.01-4.02,22.01-8.04,22.01-8.04,11.01-4c1.16-.39,2.31-.8,3.45-1.23.33,1.14.15,2.73-.52,4.49,3.3-1.2,10.36-3.78,10.36-3.78-.78-2.77-1.36-5.61-1.36-5.61,0,0-7.09,2.59-9.5,3.47.02,0,.03.02.04.03-1.01.36-2.01.75-3,1.14l-11,4.04-22.01,8.04-22.01,8.04-11.01,4.02c-3.58,1.58-7.18,3.11-10.75,4.74,3.77-1.05,7.51-2.2,11.26-3.3Z"/>
      <path class="cls-1" d="m202.19,299.85c.08-.03.15-.04.23-.07l11.49,19.06c1.23-.44,2.32-.84,3.12-1.13-.4.25-1.4.82-2.88,1.52h0c-.49.24-1.04.48-1.62.73-.82.35-1.73.72-2.73,1.08-.02,0-.03.01-.05.02-.04.01-.08.03-.11.04-.29.11-.59.21-.9.31-1.96.68-3.61,1.14-4.88,1.43v-.03c-.12.03-.24.05-.36.08v.03c-.4.09-.77.16-1.09.21-.01,0-.03,0-.04,0h0c-.36.06-.64.09-.88.1-.56-12.78-.89-20.6-.93-22.33.24-.31.77-.75,1.62-1.06Zm9.06,19.94c.11-.04.22-.08.33-.11l-5.98-10.25,5.65,10.36Zm-7.8,2.43c.11-.02.22-.05.34-.08l-1.48-15.81,1.14,15.89Z"/>
      <path class="cls-1" d="m374.8,669.8c1.56-.42,3.79,1.43,7.15,7.24-1.26.08-2.62.36-4.03.88-1.52.56-2.85,1.29-3.91,2.11-1.42-3.99-.81-9.8.79-10.23Z"/>
      <path class="cls-1" d="m373.14,665.14c2.4-1.03,4.54-.97,6.12-.03-1.72.05-3.71.53-5.49,1.18-1.3.47-2.61,1.1-3.76,1.81.06-.22.6-1.87,3.13-2.95Z"/>
      <path class="cls-1" d="m363.27,671.73c.1-.63,1.27-1.9,3.56-3.44l3.77,10.57-4.23,1.55-3.09-8.67Z"/>
      <path class="cls-1" d="m394.45,694.08c-6.49,2.37-11.88,4.92-14.03,6.53-.28-.03-.47-.07-.54-.14.08-.71,4.41-3.99,14.16-7.55,9.6-3.51,14.99-3.83,15.63-3.37-.03.11-.15.27-.35.48-2.69.16-8.41,1.68-14.87,4.04Z"/>
      <path class="cls-1" d="m261.14,683.79l92.22-33.7c2.41,8.95,5.2,17.41,6.42,21.01l-92.3,24.13-6.34-11.44Zm26.66-6l21.57-7.88,21.57-7.88c3.6-1.3,7.18-2.66,10.79-3.91.9-.29,1.79-.58,2.68-.9,5.47,5.97,2.83,15.22,2.83,15.22l10.51-2.79c-2.06-5.77-5.18-18.01-5.18-18.01l-6.65,2.43c-1.7.5-3.35,1.14-4.99,1.82-3.57,1.38-7.18,2.64-10.77,3.97l-21.57,7.88-21.57,7.88-10.78,3.94c-3.46,1.68-6.96,3.27-10.4,5.02,3.75-.87,7.44-1.91,11.17-2.86l10.78-3.94Z"/>
      <polygon class="cls-1" points="362.83 603.22 362.58 600.66 363.32 600.39 363.83 602.86 362.83 603.22"/>
      <path class="cls-1" d="m342.7,554c.14-.15.33-.33.58-.53,0,0,0,0,0,0,0,0,.02-.01.02-.02.23-.18.5-.38.82-.6,3.16-2.2,8.64-4.76,13.72-6.91.22-.1.45-.19.68-.29.17-.07.33-.14.49-.21,2.85-1.2,6.04-2.46,9.55-3.75l16.88,47.35-26.76,9.78-15.98-44.83Zm19.76,41.47l-15.32-42.71c-.97.55-1.78,1.04-2.42,1.47l14.96,42.25,2.78-1.02Z"/>
      <polygon class="cls-1" points="359.89 604.3 359.04 604.61 359.22 601.89 359.64 601.74 359.89 604.3"/>
      <path class="cls-1" d="m379.46,482.93c-.94-.03-2.13.07-3.47.28-5.93-16.64-11.75-32.97-16.62-46.63-1.99.32-4.68.92-7.99,1.81l16.62,46.63c-.67.18-1.35.37-2.02.57l-12.15-33.81-4.6-12.79c-1.11.32-2.26.66-3.48,1.03l4.6,13.02,11.9,33.67c-4.58,1.43-8.63,2.86-10.43,3.51l-17.13-48.07c.85-.31,1.7-.61,2.53-.9,0,0,0,0,0-.01,5.93-2.06,17.85-5.98,23.86-6.36.03,0,.06,0,.09,0,.13,0,.28-.02.41-.03,0,0,0,.01,0,.02.31,0,.57,0,.77.03l17.12,48.04Z"/>
      <path class="cls-1" d="m369.47,539.73l-17.13-48.07c3.79-1.37,7.29-2.54,10.42-3.51h0c5.06-1.58,10.73-3.14,14.68-3.62.2-.03.39-.05.57-.07.03,0,.06,0,.09,0,.84-.09,1.48-.1,1.89-.04l17.12,48.04c-.94-.03-2.13.07-3.47.28-5.09-14.28-10.88-30.52-16.62-46.62-1.99.32-4.68.92-7.99,1.81l16.61,46.61c-.63.17-1.26.35-1.89.53l-16.74-46.58c-1.19.34-2.44.71-3.75,1.12l16.49,46.67c-4.52,1.41-8.52,2.82-10.3,3.47Z"/>
      <path class="cls-1" d="m344.21,386.15c.17.01.3.04.41.07.95,2.02,1.66,3.63,1.98,4.5l15.22,42.69c-.94-.03-2.13.07-3.47.28-5.44-15.25-9.54-26.76-11.01-30.89-1.89-5.29-3.81-10.27-5.74-14.94-1.96.34-4.54.92-7.65,1.76,3.65,10.02,6.69,18.62,6.69,18.62l9.72,27.26c-.72.2-1.44.4-2.16.61l-6.03-16.79-5.83-16.23c-.94-2.72-2.12-5.35-3.1-8.04l-1.78-4.73c-.87.25-1.76.51-2.69.8l1.67,4.95c.94,2.71,1.69,5.5,2.69,8.2l5.75,16.26,5.88,16.62c-4.63,1.44-8.75,2.9-10.57,3.55l-16.88-47.35c.86-.31,1.7-.61,2.53-.9,0,0,0,0,0,0,.49-.17,1.03-.35,1.59-.55,1.41-.48,2.77-.93,4.07-1.35,6.33-2.05,14.36-4.36,18.7-4.49.01.03.02.06.03.1Z"/>
      <path class="cls-1" d="m325.05,504.48c.27-.31.77-.7,1.46-1.17.03-.02.07-.05.1-.07.02-.01.03-.02.05-.03h0c3.15-2.15,8.44-4.62,13.38-6.71,3.18-1.36,6.82-2.81,10.88-4.31l17.13,48.07c-3.43,1.27-15.08,5.69-21.94,9.6l-16.7-46.56c-.89.5-1.63.96-2.24,1.36l16.54,46.69c-.59.41-1.11.8-1.53,1.18l-17.12-48.04Z"/>
      <polygon class="cls-1" points="382.3 596.11 381.79 593.64 382.78 593.28 383.42 595.7 382.3 596.11"/>
      <polygon class="cls-1" points="365.27 602.33 364.75 599.87 380.35 594.17 380.86 596.63 365.27 602.33"/>
      <path class="cls-1" d="m421.06,453.32l14.9,41.9,1.67,4.7-8.52-3.34c-.09-.03-3.48-1.27-8.14-3.39l-12.8-35.83c5.06-1.19,9.83-2.89,10.88-3.27.33-.12,1.05-.39,2.01-.77Z"/>
      <path class="cls-1" d="m332.36,385.29c-.83.22-1.68.46-2.55.72-1.33-3.49-2.68-6.97-4.04-10.45.24.17.53.25.83.2l2.09-.36c1.2,3.18,2.45,6.56,3.67,9.9Z"/>
      <polygon class="cls-1" points="296.43 367.43 296.93 368.26 291.88 372.39 296.25 374.54 295.7 374.94 290.12 372.85 292.93 370.43 296.43 367.43"/>
      <path class="cls-1" d="m322.42,347.63s.09.01.13.02c0,0,.01.01.02.02.96.23,1.56.56,1.76.95,3.16,4.87,5.97,9.47,8,13.16.87,1.57,6.81,13.11,10.8,21.33-.9.05-2.01.2-3.36.44-1.61-3.73-3.21-7.24-4.8-10.56-.03-.09-.03-.19-.09-.27l-.22-.37c-4.66-9.62-9.18-17.49-13.19-23.71-1.11-.09-2.48-.08-4.05.04,1.4,2.92,2.89,6.14,4.4,9.59l-3.11-.04c-.47-1.1-.92-2.2-1.4-3.29-.87-1.99-1.75-3.97-2.65-5.95-.36.05-.73.11-1.1.18.86,2.09,1.7,4.19,2.52,6.29.36.91.69,1.83,1.04,2.75l-3.37-.04c-.08,0-.15,0-.23.02l-8.76,1.69c-.1.02-.19.08-.28.12-.1.02-.2.04-.29.09l-7.8,4.36c-.07.04-.13.08-.19.13l-9.01,7.75c-.1.09-.16.21-.23.32-.46-3.03-.89-6.07-1.25-9.12.56,6.19,1.34,12.37,2.34,18.52l1.06,7.38c.04.28.21.51.42.69.25,1.23.48,2.47.75,3.7.53,2.42,1.11,4.84,1.72,7.24-1.02.6-1.84,1.13-2.5,1.62-2.12-8.9-4.82-21.62-5.14-23.39-.75-4.15-1.49-9.51-2.14-15.3-.4-1.92,5.97-8.07,19.19-12.9,3.25-1.19,6.22-2.04,8.89-2.63,0-.01,0-.02,0-.03,5.62-1.25,9.81-1.31,12.1-.81,0,0,.02,0,.02,0Z"/>
      <path class="cls-1" d="m295.67,399.11c-1,.51-1.89.98-2.68,1.41-.65-2.29-1.27-4.58-1.85-6.89-.27-1.07-.5-2.16-.76-3.24.08-.01.17,0,.25-.04.06-.02.12-.05.18-.09l6.59-3.85c.39-.23.61-.66.56-1.11l-.85-8.56,4.43-3.27,6.47-3.58,7.09-1.41,5.62-.36.15.23c2.2,6.11,4.33,12.25,6.4,18.41-3.69,1.13-7.66,2.46-11.74,3.95-7.63,2.79-14.69,5.77-19.88,8.39Zm18.16-10.39l-1.31-3.67c-.08-.23-.24-.38-.35-.34l-2.01.74h-.03s-2.01.75-2.01.75c-.11.04-.14.26-.06.48l1.31,3.67c.08.23.24.38.35.34l2.01-.74h.03s2.01-.75,2.01-.75c.11-.04.14-.26.06-.48Zm2.12-.31l2.01-.74h.03s2.01-.75,2.01-.75c.11-.04.14-.26.06-.48l-1.31-3.67c-.08-.23-.24-.38-.35-.34l-2.01.74h-.03s-2.01.75-2.01.75c-.11.04-.14.26-.06.48l1.31,3.67c.08.23.24.38.35.34Z"/>
      <polygon class="cls-1" points="322.63 366.85 325.51 361.8 325.57 361.69 326.33 362.96 323.08 367.54 322.63 366.85"/>
      <polygon class="cls-1" points="412.64 582.37 415.08 581.48 416.78 583.51 413.84 584.58 412.64 582.37"/>
      <polygon class="cls-1" points="315.38 360.5 316.61 360.52 317.2 366.05 316.17 366.11 315.55 361.77 315.38 360.5"/>
      <polygon class="cls-1" points="308.49 367.46 306.5 361.9 312.61 360.72 307.79 362.31 309.55 367.25 308.49 367.46"/>
      <polygon class="cls-1" points="301.27 371.01 298.97 367.24 298.26 366.05 304.13 362.76 304.47 363.69 299.53 366.32 301.98 370.62 301.27 371.01"/>
      <path class="cls-1" d="m323.2,281.08l.5,1.36.23.65c-.16.49-.74,1.16-1.74,1.99-.08-.24-.17-.47-.24-.68-29.68-83.26-56.47-107.52-77.47-119.84.72-.44,1.27-.84,1.66-1.21,42.09,23.2,62.06,77.19,77.06,117.74Z"/>
      <path class="cls-1" d="m388.69,464.81c-1.98-3.16-3.94-6.38-5.86-9.62-25.66-72-51.77-145.23-59.61-167.25.71-.57,1.33-1.14,1.85-1.69l63.63,178.56Z"/>
      <path class="cls-1" d="m435.4,442.19c-5.03,4.5-15.75,8.42-17.38,9.01-.25.09-.72.26-1.33.47-3.62,1.27-6.84,2.17-9.56,2.78h0c-.8.17-1.61.33-2.41.48h0c-.65.13-1.28.23-1.85.31v-.02c-1.34.18-2.61.27-3.76.24v.04c-.33-.01-.65-.03-.9-.07-.35-.06-.61-.14-.77-.24,0-.02-.03-.03-.04-.05l-17.62-49.43c.54.05,1.11.06,1.72.04l.67,1.95,16.29,45.95c1.18-.02,2.42-.13,3.72-.31l-16.78-46.83-.4-1.1c.65-.1,1.32-.21,1.99-.34.38,1.06.74,2.13,1.12,3.19l15.93,44.77c.79-.14,1.59-.31,2.4-.49l-16.1-45.09c-.34-.96-.7-1.92-1.04-2.88,5.08-1.19,9.88-2.9,10.92-3.29.34-.12,1.06-.39,2.04-.78.14.39.28.79.42,1.18l16.67,46.87c.77-.28,1.53-.57,2.27-.85l-16.73-46.83c-.14-.42-.3-.84-.45-1.26.77-.32,1.6-.68,2.48-1.07l.37,1.1,16.69,47.15c1.58-.62,3.08-1.23,4.46-1.8l-16.84-46.92-.56-1.5c.56-.29,1.11-.58,1.65-.88l17.45,48.6c2.18-.9,3.99-1.65,5.24-2.1Z"/>
      <path class="cls-1" d="m403.94,458.2c.6-.09,1.22-.2,1.84-.32l12.03,33.82c-.74-.36-1.5-.74-2.27-1.14l-11.6-32.36Z"/>
      <polygon class="cls-1" points="365.68 375.48 360.73 377.29 358.79 371.85 363.74 370.04 365.68 375.48"/>
      <path class="cls-1" d="m291.66,410.8c-.31-.88-.78-2.58-1.32-4.74.06-.1.15-.2.28-.33-.01-.03-.03-.06-.04-.1,3.42-2.7,11.02-6.1,17.17-8.61,1.24-.51,2.53-1.03,3.89-1.55.47-.18.92-.36,1.34-.52,0,0,0,0,0,0,.94-.36,1.9-.72,2.88-1.08l16.88,47.35c-3.47,1.28-15.3,5.78-22.13,9.71l-4.97-13.85c-1.85-4.75-3.61-9.54-5.37-14.32-2.15-5.86-4.14-11.78-5.95-17.76-.39.22-.75.43-1.08.63,1.63,5.96,3.43,11.87,5.39,17.72,1.62,4.85,3.31,9.65,4.88,14.51l5.07,14.33c-.67.45-1.25.89-1.71,1.3l-15.22-42.69Z"/>
      <path class="cls-1" d="m417.55,388.09s0,.04,0,.07c-.08.28-.38.66-.88,1.14l-17.78-49.7c.38-.31.72-.62,1.04-.94l17.62,49.43Z"/>
      <polygon class="cls-1" points="385.64 592.24 386.72 591.84 387.52 594.2 386.28 594.65 385.64 592.24"/>
      <path class="cls-1" d="m307.97,454.43s0-.01,0-.02c.1-.08.23-.17.34-.25.01-.01.03-.02.04-.03,4.75-3.52,16.03-8.1,22.02-10.4,0,0,0,.01,0,.02.94-.36,1.9-.72,2.88-1.08l17.13,48.07c-3.45,1.28-15.19,5.74-22.04,9.66l-7.22-20.12-9.49-26.46c-.8.45-1.49.87-2.05,1.24l9.23,26.06,7.31,20.65c-.63.43-1.18.84-1.62,1.24l-17.12-48.04c.14-.15.33-.33.58-.53Z"/>
    </g>
  </g>
</svg>